<?xml version="1.0" standalone="no"?>
<!DOCTYPE svg PUBLIC "-//W3C//DTD SVG 20010904//EN" "http://www.w3.org/TR/2001/REC-SVG-20010904/DTD/svg10.dtd">
<svg version="1.0" xmlns="http://www.w3.org/2000/svg"
    width="640.000000pt" height="390.000000pt" viewBox="0 0 640.000000 390.000000"
    preserveAspectRatio="xMidYMid meet">

    <g transform="translate(0.000000,390.000000) scale(0.100000,-0.100000)"
        fill="#000000" stroke="none">
        <path
            d="M2849 3063 c-24 -19 -128 -98 -231 -176 l-188 -140 0 -46 c0 -51 14
-46 25 9 4 26 3 31 -4 20 -10 -13 -11 -13 -10 0 0 8 44 47 97 85 53 39 156
115 227 171 72 55 137 98 143 96 17 -5 15 5 -1 11 -8 3 -34 -11 -58 -30z" />
        <path d="M2940 3045 c0 -19 2 -35 4 -35 2 0 6 16 8 35 2 19 0 35 -4 35 -4 0
-8 -16 -8 -35z" />
        <path d="M3228 3003 c7 -3 16 -2 19 1 4 3 -2 6 -13 5 -11 0 -14 -3 -6 -6z" />
        <path d="M2944 2790 c0 -118 2 -167 3 -107 2 59 2 155 0 215 -1 59 -3 10 -3
-108z" />
        <path d="M3408 2963 c7 -3 16 -2 19 1 4 3 -2 6 -13 5 -11 0 -14 -3 -6 -6z" />
        <path d="M3448 2953 c7 -3 16 -2 19 1 4 3 -2 6 -13 5 -11 0 -14 -3 -6 -6z" />
        <path
            d="M3152 2884 c-1 -17 -4 -33 -7 -36 -3 -3 -40 3 -83 13 -90 21 -92 22
-92 11 0 -5 6 -9 14 -9 40 0 136 -27 136 -39 0 -21 -12 -22 -83 -4 -37 9 -70
13 -72 9 -6 -9 142 -42 155 -34 5 3 10 11 10 17 0 6 7 16 16 22 11 8 14 23 11
46 -4 35 -4 35 -5 4z" />
        <path d="M0 2878 c0 -4 13 -8 30 -8 39 0 39 6 0 12 -17 3 -30 1 -30 -4z" />
        <path d="M78 2863 c7 -3 16 -2 19 1 4 3 -2 6 -13 5 -11 0 -14 -3 -6 -6z" />
        <path d="M125 2860 c-3 -5 -1 -10 4 -10 6 0 11 5 11 10 0 6 -2 10 -4 10 -3 0
-8 -4 -11 -10z" />
        <path d="M158 2853 c6 -2 18 -2 25 0 6 3 1 5 -13 5 -14 0 -19 -2 -12 -5z" />
        <path d="M238 2843 c7 -3 16 -2 19 1 4 3 -2 6 -13 5 -11 0 -14 -3 -6 -6z" />
        <path
            d="M3400 2826 c0 -14 -3 -27 -8 -30 -7 -4 -89 12 -139 28 -13 4 -23 3
-23 -2 0 -5 32 -15 70 -22 54 -10 70 -17 65 -28 -3 -7 -5 -15 -5 -17 0 -2 -26
3 -57 11 -70 16 -73 16 -73 5 0 -4 17 -11 38 -14 20 -3 52 -9 70 -12 24 -6 32
-4 32 7 0 7 9 21 20 31 17 15 29 67 15 67 -3 0 -5 -11 -5 -24z" />
        <path d="M3908 2843 c6 -2 18 -2 25 0 6 3 1 5 -13 5 -14 0 -19 -2 -12 -5z" />
        <path d="M305 2829 c22 -4 51 -8 65 -7 23 0 22 1 -5 8 -16 4 -46 8 -65 8 l-35
0 40 -9z" />
        <path d="M3958 2833 c7 -3 16 -2 19 1 4 3 -2 6 -13 5 -11 0 -14 -3 -6 -6z" />
        <path d="M3998 2823 c6 -2 18 -2 25 0 6 3 1 5 -13 5 -14 0 -19 -2 -12 -5z" />
        <path d="M435 2811 c64 -14 145 -22 113 -12 -14 5 -55 11 -90 14 -48 5 -53 4
-23 -2z" />
        <path d="M4090 2803 c0 -5 15 -9 33 -10 26 -1 28 0 12 7 -26 11 -45 12 -45 3z" />
        <path
            d="M3631 2778 c-1 -33 -10 -34 -96 -14 -52 13 -78 14 -64 3 13 -11 155
-35 162 -28 5 5 7 21 4 37 l-4 29 -2 -27z" />
        <path d="M581 2786 c2 -2 36 -6 74 -9 54 -4 61 -4 30 3 -40 9 -112 13 -104 6z" />
        <path d="M740 2767 c6 -6 53 -14 130 -21 45 -5 49 -4 20 3 -44 12 -157 25
-150 18z" />
        <path
            d="M3145 2670 c-9 -113 0 -107 -107 -86 -37 7 -70 11 -73 8 -3 -3 -5
-17 -5 -32 0 -25 4 -28 48 -33 26 -3 62 -9 80 -13 27 -5 32 -4 32 12 0 12 -3
15 -8 7 -12 -18 -136 7 -140 30 -4 21 4 21 97 2 60 -13 76 -14 82 -3 9 13 13
208 5 208 -3 0 -8 -45 -11 -100z" />
        <path d="M4268 2763 c6 -2 18 -2 25 0 6 3 1 5 -13 5 -14 0 -19 -2 -12 -5z" />
        <path
            d="M3846 2748 c-4 -9 -5 -21 -2 -26 3 -5 -3 -17 -14 -27 -21 -19 -28
-41 -9 -30 7 5 10 -17 7 -73 -2 -44 0 -78 5 -75 4 2 7 41 7 87 0 45 5 87 11
93 6 6 9 23 7 39 -3 23 -6 26 -12 12z" />
        <path d="M4318 2753 c7 -3 16 -2 19 1 4 3 -2 6 -13 5 -11 0 -14 -3 -6 -6z" />
        <path d="M4365 2740 c27 -12 43 -12 25 0 -8 5 -22 9 -30 9 -10 0 -8 -3 5 -9z" />
        <path d="M985 2727 c56 -12 74 -13 64 -3 -2 2 -31 7 -64 10 l-60 5 60 -12z" />
        <path d="M1073 2713 c9 -2 25 -2 35 0 9 3 1 5 -18 5 -19 0 -27 -2 -17 -5z" />
        <path
            d="M1150 2712 c0 -11 51 -21 305 -58 61 -9 130 -20 155 -24 109 -18 197
-33 220 -35 14 -2 39 -6 55 -9 17 -2 50 -8 75 -11 39 -5 153 -23 416 -65 77
-13 73 -13 67 9 -2 10 0 35 5 55 8 26 7 34 0 29 -8 -4 -9 0 -5 10 20 50 21 53
4 37 -18 -18 -34 -66 -19 -56 7 4 9 -6 5 -31 -3 -21 -7 -40 -9 -42 -3 -3 -107
11 -176 24 -9 2 -38 6 -65 10 -26 3 -68 10 -93 15 -25 5 -81 14 -125 20 -44 6
-105 15 -135 20 -30 6 -99 17 -152 25 -54 8 -142 22 -195 31 -53 8 -115 18
-137 20 -48 5 -130 20 -169 29 -15 4 -27 3 -27 -3z" />
        <path
            d="M3397 2713 c-4 -3 -7 -45 -7 -93 0 -48 -2 -89 -5 -92 -4 -3 -23 -2
-43 2 -74 15 -112 19 -112 9 0 -5 3 -8 8 -7 16 4 123 -15 127 -22 3 -5 -2 -16
-11 -24 -14 -15 -14 -16 0 -16 9 0 16 6 16 13 0 7 9 20 20 30 17 15 20 29 20
112 0 95 -1 101 -13 88z" />
        <path d="M3621 2695 c-7 -78 -6 -104 1 -97 5 5 7 36 5 68 -2 32 -4 46 -6 29z" />
        <path
            d="M3743 2708 c1 -8 -7 -12 -20 -11 -22 3 -23 0 -21 -65 l2 -67 3 62 c3
53 6 61 21 56 9 -4 20 -11 24 -17 4 -6 8 4 8 22 0 17 -4 32 -10 32 -5 0 -9 -6
-7 -12z" />
        <path
            d="M4050 2685 c0 -16 -6 -25 -15 -25 -8 0 -14 -6 -12 -12 1 -8 -7 -12
-22 -10 -15 3 -21 0 -16 -8 4 -6 9 -9 12 -6 3 3 14 1 24 -5 15 -8 19 -6 19 6
0 10 5 13 12 9 6 -4 8 -3 4 4 -3 6 -2 13 4 17 11 7 10 55 -2 55 -4 0 -8 -11
-8 -25z" />
        <path d="M4570 2695 c30 -7 57 -12 58 -10 6 5 -71 25 -93 24 -11 0 5 -7 35
-14z" />
        <path
            d="M220 2655 c0 -41 -4 -42 -138 -21 -45 6 -82 9 -82 5 0 -7 126 -27
195 -32 l40 -2 3 43 c2 25 -1 42 -7 42 -6 0 -11 -16 -11 -35z" />
        <path d="M3770 2679 c0 -5 5 -7 10 -4 6 3 10 8 10 11 0 2 -4 4 -10 4 -5 0 -10
-5 -10 -11z" />
        <path d="M4678 2673 c7 -3 16 -2 19 1 4 3 -2 6 -13 5 -11 0 -14 -3 -6 -6z" />
        <path d="M3940 2654 l-25 -14 26 0 c15 0 29 7 33 15 6 18 -1 18 -34 -1z" />
        <path
            d="M4246 2655 c-4 -11 -15 -36 -24 -55 -9 -19 -18 -39 -21 -45 -2 -5 4
-3 13 5 17 13 18 10 14 -53 -1 -37 0 -67 5 -67 4 0 7 34 7 76 0 41 5 84 11 95
5 11 9 30 6 42 -3 21 -4 21 -11 2z" />
        <path d="M4808 2643 c7 -3 16 -2 19 1 4 3 -2 6 -13 5 -11 0 -14 -3 -6 -6z" />
        <path d="M4848 2633 c6 -2 18 -2 25 0 6 3 1 5 -13 5 -14 0 -19 -2 -12 -5z" />
        <path
            d="M670 2594 l0 -37 -47 7 c-58 8 -200 26 -228 29 -16 2 -20 -5 -22 -33
l-2 -35 12 28 c11 27 14 28 57 22 151 -23 232 -30 238 -21 9 16 10 76 1 76 -5
0 -9 -16 -9 -36z" />
        <path
            d="M4155 2620 c3 -6 -4 -10 -17 -11 -22 0 -22 -1 -3 -8 12 -5 23 -4 27
3 11 16 10 26 -3 26 -5 0 -7 -4 -4 -10z" />
        <path
            d="M4430 2604 c0 -18 -4 -25 -14 -21 -7 3 -35 8 -62 11 -62 8 -28 -9 40
-19 l46 -7 0 31 c0 17 -2 31 -5 31 -3 0 -5 -12 -5 -26z" />
        <path d="M4918 2618 c5 -5 16 -8 23 -6 8 3 3 7 -10 11 -17 4 -21 3 -13 -5z" />
        <path d="M4175 2600 c-3 -5 -1 -10 4 -10 6 0 11 5 11 10 0 6 -2 10 -4 10 -3 0
-8 -4 -11 -10z" />
        <path
            d="M4606 2588 c-4 -9 -5 -22 -1 -28 5 -8 -11 -10 -57 -6 l-63 5 53 -12
c29 -7 58 -19 63 -27 9 -13 10 -12 6 2 -3 9 -1 18 4 20 6 2 9 17 7 33 -3 24
-6 26 -12 13z" />
        <path d="M212 2570 c0 -14 2 -19 5 -12 2 6 2 18 0 25 -3 6 -5 1 -5 -13z" />
        <path
            d="M3470 2581 c0 -5 14 -11 30 -13 18 -3 30 0 30 7 0 6 -13 12 -30 13
-16 1 -30 -2 -30 -7z" />
        <path
            d="M1088 2567 c-5 -10 -8 -27 -8 -38 0 -22 -32 -25 -121 -10 -30 5 -75
12 -101 15 -45 5 -48 4 -48 -17 0 -15 3 -18 9 -9 7 11 31 10 136 -3 80 -11
131 -13 137 -7 5 5 8 27 6 48 -2 29 -5 34 -10 21z" />
        <path d="M3544 2569 c-5 -9 56 -20 67 -13 5 3 9 9 9 13 0 9 -70 9 -76 0z" />
        <path d="M4420 2458 c-3 -59 -1 -104 3 -99 4 4 6 52 5 107 l-3 99 -5 -107z" />
        <path
            d="M4768 2538 c-2 -13 -9 -22 -15 -21 -49 10 -97 15 -92 9 3 -3 30 -10
59 -16 57 -11 70 -5 70 33 0 25 -18 21 -22 -5z" />
        <path d="M5248 2543 c7 -3 16 -2 19 1 4 3 -2 6 -13 5 -11 0 -14 -3 -6 -6z" />
        <path
            d="M28 2533 c7 -3 12 -23 12 -51 0 -62 -9 -90 -29 -95 -14 -3 -14 -5 2
-12 25 -11 29 -4 34 67 2 35 6 71 8 81 2 12 -3 17 -18 16 -12 0 -16 -3 -9 -6z" />
        <path
            d="M3610 2535 c-1 -5 -2 -14 -1 -19 2 -9 -73 -2 -116 10 -13 3 -23 2
-23 -3 0 -8 141 -35 148 -28 2 2 2 14 -1 27 -2 12 -5 19 -7 13z" />
        <path
            d="M208 2524 c-5 -4 -8 -43 -8 -86 l0 -78 -75 7 c-46 3 -75 2 -75 -4 0
-5 24 -10 53 -11 28 -1 64 -5 79 -8 24 -5 27 -2 33 28 8 43 2 162 -7 152z" />
        <path
            d="M4929 2510 c-4 -26 -11 -28 -69 -15 -23 5 -32 4 -25 -3 6 -5 29 -13
52 -17 46 -7 59 4 51 42 -4 14 -6 12 -9 -7z" />
        <path
            d="M1470 2484 c0 -29 -3 -34 -17 -30 -26 7 -234 29 -238 25 -2 -2 -6
-76 -10 -163 -6 -118 -5 -157 4 -152 7 5 11 56 11 158 l0 150 33 -5 c17 -3 73
-11 124 -18 81 -10 92 -14 96 -33 2 -11 5 7 6 42 0 34 -1 62 -4 62 -3 0 -5
-16 -5 -36z" />
        <path
            d="M488 2423 l-3 -88 -65 3 c-41 1 -59 -1 -50 -7 21 -12 120 -23 120
-14 0 5 17 7 38 5 32 -3 39 0 49 22 7 16 7 26 1 26 -5 0 -12 -8 -15 -19 -3
-13 -13 -18 -34 -17 l-30 1 3 88 c2 48 0 87 -4 87 -4 0 -9 -39 -10 -87z" />
        <path d="M3701 2494 c0 -11 3 -14 6 -6 3 7 2 16 -1 19 -3 4 -6 -2 -5 -13z" />
        <path d="M3727 2503 c-3 -5 8 -9 24 -10 17 -1 27 2 24 7 -7 12 -42 13 -48 3z" />
        <path d="M4159 2482 c-3 -20 -2 -29 4 -23 5 5 7 19 5 32 -3 20 -5 19 -9 -9z" />
        <path
            d="M647 2493 c-4 -3 -6 -27 -5 -52 l1 -46 7 45 7 45 1 -57 c1 -32 -1
-57 -5 -56 -16 3 -43 -14 -37 -24 3 -5 11 -4 20 3 12 9 14 5 15 -27 2 -74 17
4 18 94 1 75 -4 93 -22 75z" />
        <path d="M3221 2496 c2 -2 20 -6 39 -10 25 -4 31 -3 20 4 -14 9 -69 15 -59 6z" />
        <path
            d="M3818 2489 c-10 -5 -18 -15 -18 -21 0 -7 5 -7 14 1 11 9 15 9 19 -1
3 -7 6 -3 6 10 1 25 2 25 -21 11z" />
        <path d="M4593 2455 c0 -27 2 -38 4 -22 2 15 2 37 0 50 -2 12 -4 0 -4 -28z" />
        <path
            d="M5078 2478 c-3 -24 -15 -26 -76 -12 -13 3 -21 1 -18 -4 3 -6 23 -13
43 -17 21 -4 41 -12 45 -18 3 -6 10 6 13 27 4 20 5 39 2 42 -3 3 -7 -5 -9 -18z" />
        <path d="M2533 2483 c9 -2 25 -2 35 0 9 3 1 5 -18 5 -19 0 -27 -2 -17 -5z" />
        <path
            d="M3140 2470 c0 -11 -4 -20 -8 -20 -10 0 -116 18 -149 25 -13 3 -23 2
-23 -3 0 -10 180 -43 192 -36 12 7 10 54 -2 54 -5 0 -10 -9 -10 -20z" />
        <path d="M3308 2483 c7 -3 16 -2 19 1 4 3 -2 6 -13 5 -11 0 -14 -3 -6 -6z" />
        <path d="M4025 2480 c-3 -5 -1 -10 4 -10 6 0 11 5 11 10 0 6 -2 10 -4 10 -3 0
-8 -4 -11 -10z" />
        <path
            d="M4762 2443 c-2 -46 -12 -67 -34 -68 -17 0 -19 -15 -1 -15 33 0 44 24
40 82 l-3 53 -2 -52z" />
        <path d="M5528 2483 c7 -3 16 -2 19 1 4 3 -2 6 -13 5 -11 0 -14 -3 -6 -6z" />
        <path d="M2598 2473 c6 -2 18 -2 25 0 6 3 1 5 -13 5 -14 0 -19 -2 -12 -5z" />
        <path
            d="M3627 2473 c-4 -3 -7 -27 -7 -53 l0 -47 -54 8 c-30 4 -63 10 -75 14
-12 3 -21 2 -21 -3 0 -10 27 -17 118 -28 l52 -7 0 62 c0 62 -1 66 -13 54z" />
        <path d="M5568 2473 c7 -3 16 -2 19 1 4 3 -2 6 -13 5 -11 0 -14 -3 -6 -6z" />
        <path d="M913 2455 c-17 -18 -16 -22 1 -22 8 0 17 9 19 19 6 21 -3 23 -20 3z" />
        <path
            d="M1822 2443 c-2 -37 2 -37 -112 -22 -47 5 -94 11 -105 12 -19 2 -20
-6 -25 -136 -3 -75 -2 -137 3 -137 6 0 13 209 8 248 -2 15 -1 15 124 -2 55 -8
104 -10 108 -6 5 4 7 23 4 41 l-4 34 -1 -32z" />
        <path d="M2653 2463 c9 -2 23 -2 30 0 6 3 -1 5 -18 5 -16 0 -22 -2 -12 -5z" />
        <path d="M2735 2460 c-19 -8 -19 -9 2 -9 12 -1 25 4 28 9 7 12 -2 12 -30 0z" />
        <path d="M2936 2453 c-6 -14 -5 -15 5 -6 7 7 10 15 7 18 -3 3 -9 -2 -12 -12z" />
        <path
            d="M3917 2461 c4 -3 10 -10 14 -14 3 -4 11 -2 17 5 8 10 5 13 -15 14
-13 1 -21 -1 -16 -5z" />
        <path
            d="M5221 2451 c-1 -22 -4 -23 -48 -17 -27 3 -43 2 -38 -3 6 -4 27 -11
48 -14 41 -6 53 5 44 40 -4 13 -5 12 -6 -6z" />
        <path
            d="M867 2453 c-4 -3 -7 -39 -7 -80 0 -65 -2 -73 -19 -73 -10 0 -21 -7
-25 -15 -6 -16 5 -20 18 -7 4 4 13 7 19 7 7 0 15 24 19 55 4 30 9 70 12 88 4
30 -2 40 -17 25z" />
        <path
            d="M1062 2448 c-7 -7 -27 -11 -45 -10 l-33 3 -10 -85 c-5 -47 -6 -86 -3
-86 13 0 19 32 19 96 l0 65 28 -5 c15 -2 32 -5 39 -5 7 -1 14 -20 16 -43 3
-34 4 -30 5 20 1 34 1 62 -1 62 -2 0 -9 -6 -15 -12z" />
        <path d="M3965 2449 c-4 -5 3 -8 14 -6 28 4 34 12 11 14 -11 1 -22 -2 -25 -8z" />
        <path
            d="M4025 2450 c-3 -5 -1 -10 5 -10 6 0 8 -5 4 -12 -4 -7 -3 -8 4 -4 14
9 16 36 3 36 -6 0 -13 -4 -16 -10z" />
        <path d="M945 2440 c-3 -5 -1 -10 4 -10 6 0 11 5 11 10 0 6 -2 10 -4 10 -3 0
-8 -4 -11 -10z" />
        <path
            d="M3393 2430 c-6 -24 0 -23 -90 -6 -77 14 -112 6 -100 -25 4 -10 6 -8
6 5 1 16 6 18 44 12 23 -4 68 -9 100 -13 57 -6 57 -6 57 21 0 31 -10 34 -17 6z" />
        <path
            d="M3840 2391 l0 -53 -32 6 c-81 14 -122 18 -116 11 4 -4 39 -13 78 -20
84 -14 94 -8 85 57 -9 61 -15 60 -15 -1z" />
        <path
            d="M4191 2431 c-7 -5 -23 -7 -35 -5 -11 2 -6 -1 12 -8 33 -11 47 -8 41
11 -3 6 -10 7 -18 2z" />
        <path
            d="M5355 2422 c-7 -21 -12 -23 -49 -17 -48 7 -29 -9 22 -18 35 -7 48 6
39 40 -4 16 -6 15 -12 -5z" />
        <path d="M2943 2350 c0 -47 2 -66 4 -42 2 23 2 61 0 85 -2 23 -4 4 -4 -43z" />
        <path
            d="M4222 2410 c-10 -17 -10 -20 3 -20 8 0 15 9 15 20 0 11 -1 20 -3 20
-1 0 -8 -9 -15 -20z" />
        <path
            d="M2140 2390 c0 -26 -3 -30 -22 -26 -13 3 -48 8 -78 11 -30 3 -70 8
-87 11 l-33 5 2 -158 2 -158 3 149 4 149 72 -9 c39 -4 90 -8 112 -8 38 -1 40
1 43 32 2 18 -1 32 -7 32 -6 0 -11 -14 -11 -30z" />
        <path
            d="M4051 2363 c-1 -59 1 -58 -84 -44 -26 4 -50 5 -52 1 -6 -9 138 -30
147 -21 4 3 3 31 -1 61 l-9 55 -1 -52z" />
        <path
            d="M5489 2405 c-1 -3 -2 -11 -3 -17 -1 -9 -15 -12 -41 -11 l-40 2 35
-10 36 -10 -2 -72 -2 -72 7 65 c5 36 11 80 16 98 4 17 5 32 1 32 -3 0 -7 -2
-7 -5z" />
        <path d="M5888 2403 c7 -3 16 -2 19 1 4 3 -2 6 -13 5 -11 0 -14 -3 -6 -6z" />
        <path d="M4681 2386 c-8 -9 -11 -19 -7 -23 9 -9 29 13 24 27 -2 8 -8 7 -17 -4z" />
        <path d="M5062 2370 c0 -19 2 -27 5 -17 2 9 2 25 0 35 -3 9 -5 1 -5 -18z" />
        <path d="M5214 2315 c0 -49 1 -71 3 -48 2 23 2 64 0 90 -2 26 -3 8 -3 -42z" />
        <path d="M5928 2393 c6 -2 18 -2 25 0 6 3 1 5 -13 5 -14 0 -19 -2 -12 -5z" />
        <path d="M4915 2380 c3 -5 8 -10 11 -10 2 0 4 5 4 10 0 6 -5 10 -11 10 -5 0
-7 -4 -4 -10z" />
        <path
            d="M2440 2357 c0 -13 -2 -26 -5 -29 -5 -4 -70 3 -154 17 -35 6 -39 4
-43 -19 -3 -14 -1 -26 3 -26 5 0 9 7 9 15 0 18 14 18 116 4 62 -8 79 -8 85 3
12 18 11 58 -1 58 -5 0 -10 -10 -10 -23z" />
        <path
            d="M5610 2366 c0 -16 -6 -18 -42 -13 l-43 5 38 -11 39 -11 -4 -71 c-3
-38 -8 -79 -13 -90 -7 -17 -6 -18 6 -7 9 8 15 41 17 90 2 42 8 82 13 87 4 6 4
17 -1 25 -8 12 -10 12 -10 -4z" />
        <path d="M3204 2357 c-3 -8 -4 -49 -2 -93 l3 -79 5 93 c5 92 4 104 -6 79z" />
        <path
            d="M4242 2325 c4 -50 1 -52 -79 -36 -24 5 -43 5 -43 1 0 -9 120 -29 133
-23 12 6 8 103 -4 103 -7 0 -10 -17 -7 -45z" />
        <path
            d="M3140 2329 l0 -31 -47 6 c-27 4 -68 9 -93 11 -42 4 -43 4 -10 -4 19
-5 56 -12 82 -15 37 -6 46 -10 41 -23 -5 -12 -16 -14 -62 -8 -31 3 -64 8 -73
11 -12 4 -18 0 -18 -10 0 -8 6 -13 13 -11 7 3 42 1 77 -4 62 -8 87 -1 74 21
-2 4 5 12 16 18 21 11 29 70 10 70 -5 0 -10 -14 -10 -31z" />
        <path d="M4835 2351 c-6 -11 9 -23 19 -14 9 9 7 23 -3 23 -6 0 -12 -4 -16 -9z" />
        <path
            d="M4900 2350 c0 -5 -7 -7 -15 -4 -8 4 -15 1 -15 -5 0 -17 37 -13 44 4
3 8 1 15 -4 15 -6 0 -10 -4 -10 -10z" />
        <path d="M5343 2305 c0 -33 2 -45 4 -27 2 18 2 45 0 60 -2 15 -4 0 -4 -33z" />
        <path
            d="M5727 2341 c-4 -17 -9 -19 -36 -11 -17 5 -31 5 -31 0 0 -5 12 -10 28
-12 26 -3 27 -5 30 -76 2 -50 -1 -79 -10 -90 -11 -13 -11 -14 2 -10 11 3 17
29 21 109 7 105 6 127 -4 90z" />
        <path d="M4431 2303 l-1 -53 -62 5 -63 4 60 -13 c76 -16 85 -9 75 59 l-7 50
-2 -52z" />
        <path
            d="M2721 2316 l-1 -29 -57 7 c-32 4 -75 9 -95 13 l-38 6 2 -84 2 -84 3
73 4 72 32 -1 c18 0 57 -4 87 -9 63 -9 73 -4 67 36 l-4 29 -2 -29z" />
        <path d="M4737 2320 c-14 -17 -15 -20 -2 -20 9 0 18 7 22 15 9 24 -1 27 -20 5z" />
        <path
            d="M5840 2319 c0 -18 -4 -20 -32 -15 l-33 6 28 -11 29 -11 -4 -83 c-4
-103 5 -101 14 3 3 42 9 89 13 105 5 17 3 27 -4 27 -6 0 -11 -9 -11 -21z" />
        <path
            d="M198 2303 c-2 -17 -9 -28 -18 -27 -8 0 -53 4 -100 7 -106 7 -64 -8
49 -18 l81 -7 0 36 c0 42 -7 48 -12 9z" />
        <path
            d="M3397 2320 c-3 -8 -7 -24 -10 -35 -2 -11 -9 -19 -17 -17 -42 10 -140
17 -140 11 0 -4 31 -10 69 -14 58 -6 68 -9 64 -24 -4 -15 -12 -16 -66 -9 -33
4 -64 5 -69 0 -4 -4 0 -8 10 -8 9 0 43 -4 75 -8 43 -6 57 -4 57 5 0 7 9 23 21
35 14 15 19 31 17 50 -3 20 -6 24 -11 14z" />
        <path d="M4678 2313 c6 -2 18 -2 25 0 6 3 1 5 -13 5 -14 0 -19 -2 -12 -5z" />
        <path d="M4855 2309 c-9 -14 -2 -20 14 -10 8 6 9 11 3 15 -6 3 -14 1 -17 -5z" />
        <path d="M4895 2300 c-10 -11 -13 -20 -8 -20 13 0 38 29 31 35 -3 3 -13 -4
-23 -15z" />
        <path
            d="M4602 2268 c3 -47 6 -46 -79 -32 -18 3 -33 1 -33 -4 0 -5 21 -12 46
-16 85 -11 84 -12 84 44 0 29 -4 50 -11 50 -6 0 -9 -17 -7 -42z" />
        <path
            d="M5950 2295 c0 -14 -6 -16 -30 -11 -19 3 -29 2 -25 -4 3 -6 15 -10 26
-10 14 0 19 -7 19 -30 0 -16 -3 -30 -7 -30 -5 0 -8 -13 -8 -30 0 -16 3 -30 6
-30 7 0 31 152 24 158 -3 3 -5 -3 -5 -13z" />
        <path d="M560 2275 c0 -8 2 -15 4 -15 2 0 6 7 10 15 3 8 1 15 -4 15 -6 0 -10
-7 -10 -15z" />
        <path
            d="M3631 2266 l-1 -29 -63 6 c-34 3 -70 9 -80 12 -9 4 -17 3 -17 -2 0
-13 152 -34 163 -24 5 5 7 21 4 37 l-4 29 -2 -29z" />
        <path
            d="M4770 2247 l0 -47 -57 5 c-41 4 -52 3 -38 -4 11 -5 42 -10 68 -10
l48 -1 -7 48 c-9 63 -14 66 -14 9z" />
        <path d="M648 2255 c-6 -30 -3 -43 8 -33 3 4 4 19 2 35 l-3 28 -7 -30z" />
        <path
            d="M2310 2205 l0 -66 -35 7 c-26 5 -35 3 -35 -7 0 -10 13 -14 40 -14
l40 0 0 73 c0 39 -2 72 -5 72 -3 0 -5 -29 -5 -65z" />
        <path
            d="M2423 2258 c-8 -13 -9 -23 -12 -90 l-1 -36 -40 5 c-27 4 -40 2 -40
-6 0 -8 16 -11 48 -9 l47 3 5 73 c3 39 4 72 3 72 -1 0 -5 -6 -10 -12z" />
        <path
            d="M3848 2254 c-5 -4 -8 -16 -8 -26 0 -20 -38 -24 -103 -9 -20 5 -39 6
-42 1 -2 -4 28 -12 68 -17 80 -12 101 -3 95 37 -1 12 -6 18 -10 14z" />
        <path
            d="M4926 2219 l7 -42 -54 7 c-34 5 -50 4 -44 -2 6 -5 31 -13 58 -16 l47
-7 0 50 c0 28 -5 51 -10 51 -6 0 -8 -16 -4 -41z" />
        <path
            d="M208 2237 c-5 -10 -8 -48 -8 -83 l0 -64 -32 1 c-18 0 -63 3 -100 8
-38 4 -68 3 -68 -1 0 -4 6 -8 13 -9 6 0 23 -2 37 -4 14 -1 54 -4 89 -6 l65 -4
8 33 c11 41 7 156 -4 129z" />
        <path d="M430 2239 c82 -12 201 -16 192 -7 -4 4 -63 9 -132 12 -106 4 -115 3
-60 -5z" />
        <path
            d="M863 2230 c-4 -14 -14 -20 -34 -20 -16 0 -29 -2 -29 -4 0 -2 -3 -13
-7 -23 -7 -17 -6 -17 11 0 9 9 27 17 39 17 14 0 26 10 34 25 7 16 7 25 1 25
-5 0 -12 -9 -15 -20z" />
        <path d="M920 2229 c0 -5 5 -7 10 -4 6 3 10 8 10 11 0 2 -4 4 -10 4 -5 0 -10
-5 -10 -11z" />
        <path d="M1056 2225 c-19 -15 -19 -15 2 -15 13 0 22 6 22 15 0 18 0 18 -24 0z" />
        <path
            d="M5078 2234 c-4 -4 -5 -24 -2 -46 l7 -38 -34 6 c-19 3 -39 7 -46 9 -7
2 -15 0 -18 -4 -5 -10 93 -27 101 -18 3 3 4 26 2 52 -2 26 -6 43 -10 39z" />
        <path d="M978 2223 c6 -2 18 -2 25 0 6 3 1 5 -13 5 -14 0 -19 -2 -12 -5z" />
        <path d="M2941 2214 c0 -11 3 -14 6 -6 3 7 2 16 -1 19 -3 4 -6 -2 -5 -13z" />
        <path
            d="M4058 2224 c-5 -4 -8 -16 -8 -26 0 -17 -7 -18 -67 -14 -47 4 -59 3
-38 -3 51 -15 115 -13 121 3 8 20 1 50 -8 40z" />
        <path
            d="M3140 2151 c0 -49 -4 -72 -15 -81 -25 -21 -17 -32 10 -13 22 16 24
25 25 91 0 41 -4 72 -10 72 -6 0 -10 -30 -10 -69z" />
        <path d="M343 2165 c0 -27 2 -38 4 -22 2 15 2 37 0 50 -2 12 -4 0 -4 -28z" />
        <path
            d="M5218 2170 l4 -40 -48 5 c-41 5 -45 4 -24 -5 26 -12 87 -10 83 3 -2
4 -3 23 -3 42 0 19 -3 35 -8 35 -4 0 -6 -18 -4 -40z" />
        <path
            d="M661 2200 c-4 -5 -9 -61 -10 -115 l-1 -31 -107 8 c-60 4 -132 9 -160
11 -29 2 -53 1 -53 -3 0 -4 26 -8 58 -9 31 -1 64 -4 72 -6 8 -2 57 -6 108 -10
74 -5 93 -3 98 8 5 15 0 156 -5 147z" />
        <path d="M2131 2184 c0 -11 3 -14 6 -6 3 7 2 16 -1 19 -3 4 -6 -2 -5 -13z" />
        <path
            d="M4249 2180 c-4 -27 -6 -27 -81 -17 -27 4 -48 3 -48 -2 0 -12 122 -23
133 -12 5 5 7 19 5 32 l-4 24 -5 -25z" />
        <path d="M2941 2174 c0 -11 3 -14 6 -6 3 7 2 16 -1 19 -3 4 -6 -2 -5 -13z" />
        <path
            d="M3390 2090 c0 -60 -4 -100 -10 -100 -5 0 -10 -7 -10 -15 0 -9 -10
-20 -22 -25 -13 -5 -18 -9 -11 -9 19 -1 43 10 43 21 0 5 6 15 13 22 16 16 23
206 7 206 -6 0 -10 -38 -10 -100z" />
        <path
            d="M5352 2153 c2 -26 -1 -37 -9 -35 -7 1 -13 -2 -13 -8 0 -5 9 -10 20
-10 17 0 20 7 20 45 0 25 -5 45 -10 45 -6 0 -10 -16 -8 -37z" />
        <path d="M5891 2174 c0 -11 3 -14 6 -6 3 7 2 16 -1 19 -3 4 -6 -2 -5 -13z" />
        <path
            d="M4438 2174 c-5 -4 -8 -16 -8 -26 0 -10 -7 -18 -16 -18 -8 0 -13 -4
-10 -9 3 -5 -6 -16 -20 -26 -14 -9 -23 -19 -20 -22 3 -4 15 2 25 11 19 17 20
17 24 -6 l4 -23 2 24 c0 14 8 32 17 42 15 17 17 69 2 53z" />
        <path d="M5548 2173 c7 -3 16 -2 19 1 4 3 -2 6 -13 5 -11 0 -14 -3 -6 -6z" />
        <path
            d="M3832 2085 c-1 -49 -6 -96 -11 -104 -7 -10 -23 -12 -67 -8 -38 4 -50
3 -34 -2 14 -5 44 -9 67 -10 52 -1 55 7 50 129 l-3 85 -2 -90z" />
        <path
            d="M5489 2163 c-1 -5 0 -22 1 -40 1 -31 1 -31 -42 -27 -32 3 -38 2 -23
-5 11 -5 32 -10 48 -10 26 -1 27 1 27 44 0 25 -2 45 -5 45 -3 0 -5 -3 -6 -7z" />
        <path d="M5670 2160 c-9 -6 -10 -10 -3 -10 6 0 15 5 18 10 8 12 4 12 -15 0z" />
        <path
            d="M1078 2154 c-5 -4 -8 -36 -8 -72 l0 -65 -57 7 c-32 3 -101 8 -153 10
-127 7 -41 -10 113 -21 104 -8 108 -7 113 12 7 30 0 138 -8 129z" />
        <path d="M3205 2150 c-3 -5 -2 -10 4 -10 5 0 13 5 16 10 3 6 2 10 -4 10 -5 0
-13 -4 -16 -10z" />
        <path
            d="M4610 2129 c0 -20 -3 -21 -55 -15 -35 4 -55 2 -55 -4 0 -5 20 -11 45
-11 25 -1 50 -2 57 -3 6 -1 15 11 19 27 4 15 3 27 -2 27 -5 0 -9 -10 -9 -21z" />
        <path
            d="M5611 2117 c-1 -38 -2 -38 -35 -36 -51 5 -54 -7 -5 -15 53 -8 62 0
50 50 l-9 39 -1 -38z" />
        <path
            d="M1581 2126 c-7 -8 -11 -23 -8 -33 4 -14 5 -13 6 5 1 20 6 22 59 21
31 0 80 -4 107 -9 35 -6 54 -5 62 3 9 9 0 12 -40 12 -29 0 -79 4 -113 8 -49 6
-63 5 -73 -7z" />
        <path
            d="M3609 2072 c-4 -40 -8 -74 -10 -77 -2 -2 -32 0 -67 4 -35 4 -65 4
-68 -1 -3 -4 8 -8 24 -8 16 0 50 -3 75 -6 l45 -6 7 54 c4 29 5 67 3 83 -2 17
-6 -3 -9 -43z" />
        <path
            d="M4040 2050 l-5 -95 -65 3 c-47 2 -61 0 -50 -7 22 -16 120 -14 126 2
3 8 3 54 2 103 l-3 89 -5 -95z" />
        <path
            d="M4347 2133 c-4 -3 -7 -21 -7 -40 0 -23 -5 -33 -15 -33 -8 0 -15 -4
-15 -10 0 -5 3 -10 8 -10 19 1 31 18 34 50 2 21 8 34 16 33 6 -2 12 2 12 7 0
11 -23 14 -33 3z" />
        <path
            d="M5682 2110 c-1 -20 -7 -41 -14 -48 -9 -9 -9 -12 0 -12 17 0 24 22 19
62 l-4 33 -1 -35z" />
        <path d="M5788 2133 c7 -3 16 -2 19 1 4 3 -2 6 -13 5 -11 0 -14 -3 -6 -6z" />
        <path d="M5916 2125 c-18 -13 -18 -14 3 -12 11 1 21 7 21 14 0 16 0 16 -24 -2z" />
        <path d="M782 2100 c0 -19 2 -27 5 -17 2 9 2 25 0 35 -3 9 -5 1 -5 -18z" />
        <path
            d="M1460 2059 l0 -71 -72 6 c-171 15 -198 16 -198 6 0 -5 19 -10 43 -11
49 0 158 -8 205 -14 l32 -4 0 80 c0 43 -2 79 -5 79 -3 0 -5 -32 -5 -71z" />
        <path
            d="M2600 2119 c0 -7 -12 -9 -35 -5 -26 5 -35 3 -35 -6 0 -10 12 -12 40
-10 26 3 40 9 40 18 0 8 -2 14 -5 14 -3 0 -5 -5 -5 -11z" />
        <path
            d="M2694 2117 c-3 -8 -17 -11 -39 -9 -19 2 -35 0 -35 -4 0 -5 18 -10 40
-12 31 -2 41 2 50 18 7 14 8 20 0 20 -6 0 -13 -6 -16 -13z" />
        <path
            d="M4778 2124 c-5 -4 -8 -15 -8 -24 0 -14 -8 -15 -50 -10 -27 4 -50 3
-50 -1 0 -10 103 -18 113 -9 5 4 7 18 5 30 -1 12 -6 18 -10 14z" />
        <path
            d="M5730 2098 c0 -26 -4 -38 -14 -38 -8 0 -17 -4 -20 -9 -3 -4 7 -8 22
-7 22 1 28 6 30 28 2 15 -1 35 -7 45 -9 15 -10 11 -11 -19z" />
        <path d="M3201 2104 c0 -11 3 -14 6 -6 3 7 2 16 -1 19 -3 4 -6 -2 -5 -13z" />
        <path d="M5274 2111 c3 -5 15 -7 26 -4 28 7 25 13 -6 13 -14 0 -23 -4 -20 -9z" />
        <path d="M4243 2035 c0 -44 2 -61 4 -37 2 23 2 59 0 80 -2 20 -4 1 -4 -43z" />
        <path
            d="M4932 2089 c-8 -20 -15 -23 -58 -22 l-49 2 40 -9 c64 -14 74 -12 81
15 8 34 -3 45 -14 14z" />
        <path
            d="M5840 2074 c0 -34 -1 -35 -30 -29 -19 4 -30 3 -30 -4 0 -6 18 -11 40
-11 l40 0 0 40 c0 22 -4 40 -10 40 -5 0 -10 -16 -10 -36z" />
        <path
            d="M2423 2079 c-6 -20 -10 -21 -93 -15 -49 4 -90 3 -93 -1 -3 -5 11 -9
31 -9 20 0 64 -2 96 -4 58 -5 60 -4 67 23 4 15 5 27 2 27 -3 0 -7 -10 -10 -21z" />
        <path
            d="M5300 2095 c0 -26 16 -35 36 -20 17 14 18 15 0 9 -11 -4 -22 -1 -27
7 -5 8 -9 10 -9 4z" />
        <path
            d="M5950 2064 c0 -40 -1 -40 -32 -37 -25 3 -30 2 -18 -6 8 -6 27 -11 43
-11 24 0 27 4 27 33 0 17 -5 39 -10 47 -7 11 -10 4 -10 -26z" />
        <path
            d="M1810 2024 l0 -66 -67 6 c-38 3 -94 9 -125 12 -32 3 -58 2 -58 -3 0
-5 8 -9 18 -9 9 -1 68 -4 130 -9 l112 -8 0 72 c0 39 -2 71 -5 71 -3 0 -5 -30
-5 -66z" />
        <path
            d="M5083 2070 c-9 -21 -16 -24 -54 -23 -36 2 -39 0 -19 -7 63 -21 98 -7
87 37 -3 15 -5 14 -14 -7z" />
        <path d="M3203 2035 c0 -27 2 -38 4 -22 2 15 2 37 0 50 -2 12 -4 0 -4 -28z" />
        <path d="M4603 2010 c0 -41 2 -58 4 -37 2 20 2 54 0 75 -2 20 -4 3 -4 -38z" />
        <path
            d="M2666 2051 c-11 -12 -26 -17 -44 -14 l-27 3 25 -10 c27 -12 65 1 74
26 8 20 -8 17 -28 -5z" />
        <path
            d="M5227 2063 c-5 -7 -5 -17 -2 -23 4 -6 -13 -10 -42 -11 l-48 -1 44
-10 c49 -11 64 -3 59 33 -2 17 -6 20 -11 12z" />
        <path d="M5375 2060 c-3 -5 -1 -10 4 -10 6 0 11 5 11 10 0 6 -2 10 -4 10 -3 0
-8 -4 -11 -10z" />
        <path
            d="M2137 2053 c-3 -5 -4 -30 -2 -58 1 -27 -3 -53 -9 -57 -7 -5 -4 -8 7
-8 14 0 17 10 17 65 0 61 -3 75 -13 58z" />
        <path d="M4766 2045 c-9 -26 -7 -32 5 -12 6 10 9 21 6 23 -2 3 -7 -2 -11 -11z" />
        <path d="M2537 2043 c-14 -13 -6 -20 18 -15 14 2 28 8 31 13 6 10 -39 12 -49
2z" />
        <path d="M2696 2035 c-3 -8 -1 -15 3 -15 5 0 11 7 15 15 3 8 1 15 -3 15 -5 0
-11 -7 -15 -15z" />
        <path
            d="M3144 2035 c-4 -8 -20 -16 -38 -16 -21 -1 -24 -3 -10 -6 15 -3 20
-10 17 -22 -4 -16 -13 -18 -61 -15 -32 3 -65 6 -74 8 -10 2 -18 0 -18 -5 0 -5
15 -9 34 -9 18 0 54 -3 80 -6 41 -6 46 -5 46 12 0 11 9 27 20 37 11 9 20 21
20 27 0 15 -10 12 -16 -5z" />
        <path
            d="M5298 2036 c-10 -7 -18 -17 -18 -21 0 -5 8 -1 18 7 9 9 24 18 32 21
13 5 13 5 0 6 -8 0 -23 -6 -32 -13z" />
        <path d="M5363 2019 c-1 -11 3 -16 11 -13 16 6 17 31 1 31 -6 0 -12 -8 -12
-18z" />
        <path
            d="M5492 2008 c-24 -17 -40 -33 -36 -37 4 -3 9 0 11 7 3 6 10 12 17 12
7 0 23 11 36 25 30 32 25 31 -28 -7z" />
        <path d="M2439 2023 c-5 -34 -2 -123 4 -123 4 0 7 29 7 65 0 36 -2 65 -5 65
-3 0 -5 -3 -6 -7z" />
        <path d="M2983 2023 c15 -2 37 -2 50 0 12 2 0 4 -28 4 -27 0 -38 -2 -22 -4z" />
        <path
            d="M4392 2014 c-12 -8 -22 -20 -22 -26 0 -6 10 -3 21 8 22 19 22 19 17
-8 -3 -16 -1 -28 3 -28 5 0 9 16 9 35 0 40 1 40 -28 19z" />
        <path d="M4922 2000 c0 -19 2 -27 5 -17 2 9 2 25 0 35 -3 9 -5 1 -5 -18z" />
        <path
            d="M5320 2005 c-7 -13 -20 -26 -29 -28 -12 -4 -11 -5 4 -6 13 0 25 9 32
26 16 34 11 41 -7 8z" />
        <path d="M5438 2013 c-18 -22 -30 -53 -20 -53 7 0 45 70 38 70 -1 0 -10 -8
-18 -17z" />
        <path d="M388 2013 c6 -2 18 -2 25 0 6 3 1 5 -13 5 -14 0 -19 -2 -12 -5z" />
        <path d="M3159 2001 c-30 -33 -32 -43 -5 -26 14 10 26 24 26 31 0 17 -1 17
-21 -5z" />
        <path
            d="M4326 2005 c-17 -13 -18 -15 -3 -15 20 0 23 -16 5 -23 -8 -3 -7 -6 4
-6 12 -1 16 7 16 29 -1 17 -1 30 -2 30 -1 0 -10 -7 -20 -15z" />
        <path d="M550 1999 c0 -5 5 -7 10 -4 6 3 10 8 10 11 0 2 -4 4 -10 4 -5 0 -10
-5 -10 -11z" />
        <path d="M5074 1996 c-3 -7 -4 -38 -2 -67 l3 -54 5 68 c5 67 4 79 -6 53z" />
        <path
            d="M5618 1993 c-4 -16 -11 -20 -32 -16 -14 3 -26 1 -26 -4 0 -5 14 -10
30 -11 31 -2 46 14 38 40 -3 7 -7 3 -10 -9z" />
        <path
            d="M2718 1946 c4 -54 4 -55 -24 -59 -28 -4 -28 -4 4 -6 l32 -1 0 60 c0
33 -4 60 -8 60 -5 0 -7 -24 -4 -54z" />
        <path d="M5218 1977 c-3 -19 -2 -25 4 -19 6 6 8 18 6 28 -3 14 -5 12 -10 -9z" />
        <path d="M5681 1993 c0 -6 -4 -20 -7 -30 -5 -14 -4 -15 5 -7 7 7 11 20 8 30
-3 11 -5 14 -6 7z" />
        <path
            d="M5740 1985 c0 -9 -10 -19 -22 -24 -18 -6 -19 -9 -5 -14 23 -9 23 -84
0 -109 -9 -10 -11 -18 -5 -18 6 0 15 8 20 18 10 19 25 162 17 162 -3 0 -5 -7
-5 -15z" />
        <path
            d="M3226 1974 c-9 -24 -8 -24 27 -23 l32 1 -30 7 c-28 6 -29 7 -10 19
16 9 17 11 4 12 -9 0 -20 -7 -23 -16z" />
        <path d="M4835 1979 c-4 -6 -5 -12 -2 -15 2 -3 7 2 10 11 7 17 1 20 -8 4z" />
        <path d="M5339 1963 l-24 -28 25 22 c14 11 34 23 45 26 19 5 19 5 -1 6 -11 0
-31 -11 -45 -26z" />
        <path d="M3270 1976 c0 -2 18 -6 40 -8 22 -2 40 0 40 4 0 5 -18 8 -40 8 -22 0
-40 -2 -40 -4z" />
        <path d="M4756 1963 c-6 -14 -5 -15 5 -6 7 7 10 15 7 18 -3 3 -9 -2 -12 -12z" />
        <path d="M5494 1959 c-19 -21 -19 -21 9 -8 15 7 27 16 27 21 0 14 -16 9 -36
-13z" />
        <path
            d="M5848 1962 c-4 -15 -13 -18 -39 -16 l-34 3 35 -10 35 -10 -1 -82 c-2
-79 -2 -78 6 23 9 101 8 131 -2 92z" />
        <path
            d="M3621 1916 l-1 -59 -82 7 c-50 4 -77 3 -68 -3 20 -11 158 -23 163
-13 3 4 2 34 -3 67 l-7 60 -2 -59z" />
        <path
            d="M4847 1950 c-9 -11 -12 -20 -6 -20 5 0 7 -4 4 -10 -3 -5 -1 -10 5
-10 7 0 10 6 7 13 -2 6 0 20 5 30 12 23 6 22 -15 -3z" />
        <path d="M5245 1960 c-3 -5 -2 -10 4 -10 5 0 13 5 16 10 3 6 2 10 -4 10 -5 0
-13 -4 -16 -10z" />
        <path
            d="M5960 1949 c0 -18 -5 -21 -30 -17 -16 3 -30 1 -30 -4 0 -4 16 -8 35
-8 31 0 35 3 35 25 0 14 -2 25 -5 25 -3 0 -5 -10 -5 -21z" />
        <path d="M1118 1953 c7 -3 16 -2 19 1 4 3 -2 6 -13 5 -11 0 -14 -3 -6 -6z" />
        <path d="M3298 1943 c7 -3 16 -2 19 1 4 3 -2 6 -13 5 -11 0 -14 -3 -6 -6z" />
        <path
            d="M3842 1897 l-2 -59 -77 6 c-50 3 -69 2 -53 -3 31 -11 138 -14 142 -3
2 4 1 32 -3 62 l-6 55 -1 -58z" />
        <path
            d="M4230 1940 c0 -6 -21 -8 -57 -4 -41 5 -54 4 -49 -4 11 -18 101 -15
116 3 9 10 9 15 1 15 -6 0 -11 -5 -11 -10z" />
        <path d="M4806 1934 c-4 -9 -4 -19 -1 -22 2 -3 7 3 11 12 4 9 4 19 1 22 -2 3
-7 -3 -11 -12z" />
        <path
            d="M5270 1919 c-21 -20 -36 -27 -38 -20 -2 7 -10 0 -18 -15 -18 -34 -13
-40 11 -14 10 11 23 20 29 21 10 0 63 59 54 59 -2 0 -19 -14 -38 -31z" />
        <path
            d="M5358 1931 c-7 -10 -23 -21 -36 -25 -31 -10 -21 -19 12 -10 14 3 26
11 26 16 0 6 8 17 18 24 9 7 12 14 5 14 -6 0 -18 -8 -25 -19z" />
        <path d="M5455 1939 c-4 -6 -5 -12 -2 -15 2 -3 7 2 10 11 7 17 1 20 -8 4z" />
        <path d="M5600 1903 c0 -25 3 -43 8 -39 4 4 7 25 7 47 0 21 -3 39 -7 39 -5 0
-8 -21 -8 -47z" />
        <path d="M2078 1933 c7 -3 16 -2 19 1 4 3 -2 6 -13 5 -11 0 -14 -3 -6 -6z" />
        <path
            d="M3140 1919 c0 -21 -3 -21 -92 -15 -58 4 -87 3 -78 -3 8 -5 51 -10 94
-12 79 -4 79 -4 87 24 4 15 3 27 -2 27 -5 0 -9 -10 -9 -21z" />
        <path
            d="M4379 1931 c8 -5 10 -14 6 -21 -5 -9 -4 -11 3 -6 18 11 14 36 -5 36
-14 0 -15 -2 -4 -9z" />
        <path d="M4410 1929 c0 -5 5 -7 10 -4 6 3 10 8 10 11 0 2 -4 4 -10 4 -5 0 -10
-5 -10 -11z" />
        <path d="M4764 1925 c-17 -13 -17 -14 -2 -15 9 0 20 5 23 11 11 17 0 20 -21 4z" />
        <path d="M5215 1930 c-3 -5 -1 -10 4 -10 6 0 11 5 11 10 0 6 -2 10 -4 10 -3 0
-8 -4 -11 -10z" />
        <path d="M2238 1923 c7 -3 16 -2 19 1 4 3 -2 6 -13 5 -11 0 -14 -3 -6 -6z" />
        <path d="M5555 1920 c-3 -5 -2 -10 4 -10 5 0 13 5 16 10 3 6 2 10 -4 10 -5 0
-13 -4 -16 -10z" />
        <path d="M7 1913 c7 -2 19 -2 26 0 6 3 1 5 -13 5 -14 0 -19 -2 -13 -5z" />
        <path d="M2328 1913 c7 -3 16 -2 19 1 4 3 -2 6 -13 5 -11 0 -14 -3 -6 -6z" />
        <path d="M2368 1913 c6 -2 18 -2 25 0 6 3 1 5 -13 5 -14 0 -19 -2 -12 -5z" />
        <path
            d="M3391 1901 c-1 -24 -1 -24 -85 -17 -53 4 -87 2 -91 -4 -4 -6 11 -10
37 -10 24 0 66 -3 94 -6 55 -7 68 3 53 41 -7 18 -8 18 -8 -4z" />
        <path
            d="M4052 1873 l-2 -52 -72 4 c-50 3 -65 2 -48 -4 31 -11 128 -14 132 -3
2 4 1 30 -3 57 l-6 50 -1 -52z" />
        <path d="M4565 1900 c-10 -11 -16 -22 -14 -24 2 -2 12 7 22 20 22 29 17 32 -8
4z" />
        <path d="M4935 1909 c-4 -6 -5 -12 -2 -15 2 -3 7 2 10 11 7 17 1 20 -8 4z" />
        <path d="M4960 1897 c-28 -41 -31 -47 -26 -47 7 0 49 61 44 65 -2 2 -10 -6
-18 -18z" />
        <path d="M5378 1913 c6 -2 18 -2 25 0 6 3 1 5 -13 5 -14 0 -19 -2 -12 -5z" />
        <path d="M98 1903 c12 -2 30 -2 40 0 9 3 -1 5 -23 4 -22 0 -30 -2 -17 -4z" />
        <path
            d="M4246 1897 c-5 -10 -6 -34 -3 -54 l6 -35 -64 4 c-36 2 -65 1 -65 -3
0 -7 130 -22 137 -16 2 3 3 31 1 63 -2 42 -6 54 -12 41z" />
        <path d="M4870 1889 l-25 -20 33 16 c17 8 32 18 32 20 0 10 -16 4 -40 -16z" />
        <path d="M4995 1900 c-3 -6 1 -7 9 -4 18 7 21 14 7 14 -6 0 -13 -4 -16 -10z" />
        <path d="M5170 1883 l-25 -25 28 17 c15 10 27 21 27 26 0 12 -2 11 -30 -18z" />
        <path
            d="M5435 1900 c-4 -6 -12 -7 -18 -4 -7 4 -9 3 -4 -1 4 -5 0 -20 -9 -34
l-15 -26 22 25 c12 14 26 24 30 23 5 -2 9 4 9 12 0 17 -6 19 -15 5z" />
        <path d="M5497 1903 c-4 -3 -7 -11 -7 -17 0 -6 5 -5 12 2 6 6 9 14 7 17 -3 3
-9 2 -12 -2z" />
        <path d="M5953 1835 c0 -44 2 -61 4 -37 2 23 2 59 0 80 -2 20 -4 1 -4 -43z" />
        <path
            d="M294 1884 c-10 -9 -13 -12 -5 -8 12 6 13 -18 8 -152 -4 -102 -3 -154
3 -144 5 8 10 74 10 145 0 72 4 135 8 141 8 12 152 15 152 3 0 -4 21 -5 48 -2
26 2 75 0 110 -5 34 -5 65 -5 67 -1 6 9 -180 23 -194 15 -6 -4 -11 -2 -11 3 0
7 -29 11 -79 10 -44 -1 -84 1 -89 5 -5 3 -18 -2 -28 -10z" />
        <path d="M2588 1893 c7 -3 16 -2 19 1 4 3 -2 6 -13 5 -11 0 -14 -3 -6 -6z" />
        <path
            d="M4605 1868 c-17 -17 -22 -26 -12 -22 10 3 17 1 17 -6 0 -6 5 -8 11
-4 8 5 8 8 0 14 -9 5 -8 10 3 19 10 8 16 9 21 1 8 -12 45 5 45 21 0 6 -8 3
-17 -6 -15 -15 -18 -15 -28 -2 -9 13 -15 10 -40 -15z" />
        <path
            d="M5452 1871 c-12 -17 -18 -31 -12 -31 5 0 10 6 10 13 0 6 6 3 12 -7 8
-15 7 -22 -6 -31 -9 -7 -16 -16 -16 -20 0 -4 7 -2 15 5 8 7 15 9 15 4 0 -5 7
4 15 20 18 33 19 39 5 31 -5 -3 -15 -3 -21 1 -8 5 -8 9 1 14 7 4 11 13 9 19
-3 7 -15 -2 -27 -18z" />
        <path
            d="M175 1878 c-2 -7 -6 -51 -8 -98 -3 -47 -8 -93 -12 -102 -4 -11 -3
-18 3 -18 12 0 20 51 25 158 3 70 1 85 -8 60z" />
        <path d="M4480 1864 l-25 -15 25 7 c14 3 29 10 35 15 15 14 -7 10 -35 -7z" />
        <path d="M5290 1870 c-9 -6 -10 -10 -3 -10 6 0 15 5 18 10 8 12 4 12 -15 0z" />
        <path d="M2942 1845 c0 -16 2 -22 5 -12 2 9 2 23 0 30 -3 6 -5 -1 -5 -18z" />
        <path d="M708 1854 c-5 -4 -7 -64 -7 -133 l2 -126 9 110 c9 117 8 162 -4 149z" />
        <path
            d="M2892 1824 c-2 -36 -9 -48 -72 -108 -38 -37 -70 -75 -69 -84 0 -14 2
-14 6 -2 2 8 36 44 75 80 69 64 69 66 65 110 l-4 45 -1 -41z" />
        <path d="M4535 1840 c-10 -11 -15 -20 -11 -20 11 0 39 30 34 36 -3 2 -13 -5
-23 -16z" />
        <path
            d="M4757 1840 c-3 -11 -10 -20 -17 -20 -6 0 -8 5 -4 12 4 7 3 8 -5 4 -6
-4 -9 -11 -6 -16 3 -5 1 -11 -5 -15 -5 -3 -10 -11 -10 -17 0 -12 46 29 61 55
5 10 6 17 1 17 -6 0 -12 -9 -15 -20z" />
        <path
            d="M5070 1846 c0 -7 -7 -19 -15 -26 -11 -9 -12 -15 -2 -25 7 -7 16 -11
21 -8 4 3 2 9 -5 14 -11 6 -10 12 4 27 19 21 22 32 7 32 -5 0 -10 -6 -10 -14z" />
        <path d="M5310 1840 c-14 -11 -20 -20 -14 -20 6 0 19 9 29 20 23 25 17 25 -15
0z" />
        <path
            d="M5345 1840 c-10 -11 -16 -22 -14 -24 2 -3 14 6 26 20 12 13 18 24 14
24 -4 0 -16 -9 -26 -20z" />
        <path d="M798 1843 c17 -2 47 -2 65 0 17 2 3 4 -33 4 -36 0 -50 -2 -32 -4z" />
        <path d="M1087 1843 c-4 -3 -6 -43 -5 -87 l1 -81 7 85 c6 93 6 93 -3 83z" />
        <path d="M4656 1838 c3 -4 14 -6 24 -5 32 5 32 13 0 13 -16 0 -27 -3 -24 -8z" />
        <path
            d="M5120 1830 c-6 -11 -8 -20 -6 -20 3 0 10 9 16 20 6 11 8 20 6 20 -3
0 -10 -9 -16 -20z" />
        <path d="M5670 1828 c-12 -22 -12 -22 6 -6 10 10 15 20 12 24 -4 3 -12 -5 -18
-18z" />
        <path d="M682 1810 c0 -19 2 -27 5 -17 2 9 2 25 0 35 -3 9 -5 1 -5 -18z" />
        <path d="M943 1833 c15 -2 37 -2 50 0 12 2 0 4 -28 4 -27 0 -38 -2 -22 -4z" />
        <path d="M1040 1830 c0 -6 7 -10 15 -10 8 0 15 2 15 4 0 2 -7 6 -15 10 -8 3
-15 1 -15 -4z" />
        <path d="M4470 1829 c0 -5 5 -7 10 -4 6 3 10 8 10 11 0 2 -4 4 -10 4 -5 0 -10
-5 -10 -11z" />
        <path d="M5400 1830 c-9 -6 -10 -10 -3 -10 6 0 15 5 18 10 8 12 4 12 -15 0z" />
        <path
            d="M1104 1817 c-2 -7 -3 -62 -1 -123 l3 -109 2 117 2 117 43 4 42 4 -43
1 c-27 1 -44 -3 -48 -11z" />
        <path
            d="M4565 1810 c-10 -11 -24 -20 -32 -20 -7 0 -13 -5 -13 -10 0 -7 6 -7
18 -1 18 10 59 51 50 51 -3 0 -13 -9 -23 -20z" />
        <path
            d="M4863 1819 c-6 -6 -17 -12 -24 -13 -37 -8 -99 -40 -99 -51 0 -7 -10
-19 -22 -28 l-23 -14 29 0 c21 0 25 2 15 9 -10 7 -9 9 7 5 13 -3 21 1 21 9 0
7 -4 11 -9 8 -4 -3 -8 -1 -8 4 0 11 24 22 46 22 9 0 12 -5 8 -12 -4 -7 -3 -8
5 -4 6 4 9 12 6 17 -4 5 -3 14 1 21 5 8 11 6 20 -6 11 -16 14 -15 29 13 16 33
16 38 -2 20z" />
        <path d="M4965 1820 c-16 -7 -17 -9 -3 -9 9 -1 20 4 23 9 7 11 7 11 -20 0z" />
        <path d="M5207 1823 c-4 -3 -7 -11 -7 -17 0 -6 5 -5 12 2 6 6 9 14 7 17 -3 3
-9 2 -12 -2z" />
        <path d="M1248 1813 c18 -2 45 -2 60 0 15 2 0 4 -33 4 -33 0 -45 -2 -27 -4z" />
        <path d="M1348 1813 c7 -3 16 -2 19 1 4 3 -2 6 -13 5 -11 0 -14 -3 -6 -6z" />
        <path d="M1385 1810 c-3 -5 1 -10 9 -10 9 0 16 5 16 10 0 6 -4 10 -9 10 -6 0
-13 -4 -16 -10z" />
        <path
            d="M1430 1810 c-8 -5 -10 -10 -5 -10 6 0 17 5 25 10 8 5 11 10 5 10 -5
0 -17 -5 -25 -10z" />
        <path d="M1534 1809 c-3 -5 38 -9 92 -9 54 0 95 2 93 4 -10 8 -180 13 -185 5z" />
        <path d="M3607 1801 c-4 -17 -3 -21 5 -13 5 5 8 16 6 23 -3 8 -7 3 -11 -10z" />
        <path
            d="M4439 1815 c-1 -3 -2 -9 -3 -14 -2 -14 -16 -26 -16 -14 0 5 -26 10
-57 11 -42 2 -54 0 -43 -8 8 -5 34 -10 58 -10 26 0 41 -4 37 -10 -3 -5 -1 -18
4 -27 9 -15 12 -12 11 12 0 3 7 19 15 35 9 17 11 30 5 30 -5 0 -11 -2 -11 -5z" />
        <path d="M4655 1810 c-3 -5 -1 -10 4 -10 6 0 11 5 11 10 0 6 -2 10 -4 10 -3 0
-8 -4 -11 -10z" />
        <path d="M4890 1810 c0 -5 7 -7 15 -4 8 4 15 8 15 10 0 2 -7 4 -15 4 -8 0 -15
-4 -15 -10z" />
        <path d="M5565 1810 c-3 -5 -2 -10 4 -10 5 0 13 5 16 10 3 6 2 10 -4 10 -5 0
-13 -4 -16 -10z" />
        <path
            d="M3141 1789 c-1 -14 -7 -38 -13 -53 -13 -28 -13 -28 -90 -23 -55 4
-78 2 -78 -6 0 -12 154 -18 162 -7 28 43 37 71 29 92 l-10 23 0 -26z" />
        <path
            d="M5264 1788 c-19 -23 -19 -23 1 -7 11 9 27 19 35 22 13 5 13 6 -1 6
-9 1 -24 -9 -35 -21z" />
        <path
            d="M5714 1796 c-4 -11 -14 -15 -28 -11 -11 2 -16 3 -11 0 6 -3 9 -21 7
-40 -3 -21 0 -35 7 -35 6 0 11 12 11 27 0 14 7 35 17 45 9 10 13 21 10 24 -4
4 -9 -1 -13 -10z" />
        <path
            d="M1767 1792 c6 -4 13 -21 15 -37 3 -29 4 -29 9 8 4 32 2 37 -16 37
-12 0 -16 -3 -8 -8z" />
        <path d="M2855 1790 c-3 -5 -1 -10 4 -10 6 0 11 5 11 10 0 6 -2 10 -4 10 -3 0
-8 -4 -11 -10z" />
        <path d="M4608 1792 c-10 -2 -18 -8 -18 -13 0 -11 11 -11 30 1 18 11 11 18
-12 12z" />
        <path d="M4961 1791 c-7 -5 -12 -14 -10 -20 2 -6 10 -2 17 9 14 22 13 23 -7
11z" />
        <path d="M5230 1785 c0 -8 2 -15 4 -15 2 0 6 7 10 15 3 8 1 15 -4 15 -6 0 -10
-7 -10 -15z" />
        <path
            d="M5340 1788 c0 -4 -6 -8 -14 -8 -16 0 -31 -18 -23 -27 3 -3 12 0 19 6
7 7 21 18 32 25 16 11 16 13 2 13 -9 0 -16 -4 -16 -9z" />
        <path d="M5647 1793 c-4 -3 -7 -11 -7 -17 0 -6 5 -5 12 2 6 6 9 14 7 17 -3 3
-9 2 -12 -2z" />
        <path
            d="M3391 1770 c-1 -14 -10 -35 -20 -47 -16 -20 -29 -23 -85 -23 -90 0
-83 -14 8 -18 l75 -3 16 35 c9 19 15 45 12 58 -4 23 -4 23 -6 -2z" />
        <path
            d="M5177 1759 c-27 -31 -37 -56 -17 -44 6 3 10 13 10 21 0 8 6 14 14 14
7 0 16 9 19 20 7 26 6 26 -26 -11z" />
        <path d="M5456 1775 c-16 -12 -17 -15 -4 -15 8 0 21 7 28 15 16 19 1 19 -24 0z" />
        <path d="M5535 1780 c-3 -6 1 -7 9 -4 18 7 21 14 7 14 -6 0 -13 -4 -16 -10z" />
        <path
            d="M3627 1770 c-13 -28 -23 -137 -16 -156 5 -14 8 -7 10 24 1 23 2 45 4
50 1 4 5 19 9 34 9 32 3 72 -7 48z" />
        <path
            d="M4672 1757 c-20 -21 -20 -23 -2 -23 11 0 20 9 23 23 2 13 3 23 2 23
-1 0 -11 -10 -23 -23z" />
        <path
            d="M4860 1756 c-19 -13 -38 -22 -42 -20 -4 3 -12 -5 -18 -16 -6 -11 -15
-18 -19 -16 -4 3 -8 -1 -8 -10 0 -12 3 -12 17 -2 78 58 109 77 130 81 l25 4
-25 1 c-14 0 -41 -10 -60 -22z" />
        <path
            d="M3852 1758 c-7 -7 -12 -21 -12 -31 0 -18 -6 -19 -70 -15 -38 2 -70 1
-70 -3 0 -12 141 -15 150 -4 6 9 20 65 16 65 -1 0 -7 -5 -14 -12z" />
        <path
            d="M4622 1728 c-10 -24 -15 -45 -10 -46 19 -8 -6 -22 -39 -22 l-36 0 19
22 c18 20 17 20 -13 -2 -35 -25 -42 -36 -18 -26 8 3 15 2 15 -3 0 -14 71 -4
88 13 11 10 12 16 4 16 -7 0 -12 5 -12 11 0 5 5 7 12 3 7 -4 8 -3 4 5 -4 6 -1
25 8 41 8 17 10 30 6 30 -5 0 -18 -19 -28 -42z" />
        <path
            d="M5380 1760 c-11 -7 -11 -10 -2 -10 8 0 10 -5 6 -12 -4 -7 -3 -9 1 -5
7 6 17 37 12 37 -1 0 -9 -5 -17 -10z" />
        <path
            d="M5497 1756 c-21 -16 -22 -27 -2 -20 20 8 19 -6 -1 -35 -11 -15 -13
-26 -6 -33 6 -6 12 -6 17 3 5 8 4 10 -3 5 -22 -13 -12 5 16 30 15 14 21 22 13
18 -10 -5 -13 -3 -9 8 10 24 -5 38 -25 24z" />
        <path
            d="M5621 1737 l-1 -39 -40 3 c-21 2 -42 0 -46 -4 -4 -4 9 -8 29 -9 21
-1 45 -2 55 -2 12 -1 16 6 14 23 -1 13 3 31 10 39 9 10 9 13 1 9 -6 -4 -14 -1
-16 5 -3 7 -6 -4 -6 -25z" />
        <path
            d="M5753 1763 c-7 -2 -13 -20 -13 -39 0 -23 -5 -34 -14 -34 -8 0 -17 -4
-20 -8 -7 -12 38 -10 46 2 4 6 4 22 1 35 -4 17 0 28 12 38 19 13 12 16 -12 6z" />
        <path
            d="M2135 1748 c-8 -28 -12 -378 -4 -378 5 0 9 75 9 166 0 157 1 166 20
171 11 3 20 9 20 15 0 5 -9 4 -21 -2 -18 -10 -20 -9 -17 7 2 11 11 17 23 15
17 -2 17 -1 5 7 -20 14 -30 14 -35 -1z" />
        <path d="M4525 1735 c-16 -13 -25 -24 -19 -25 6 0 21 11 34 25 30 32 24 32
-15 0z" />
        <path d="M4902 1748 c-14 -19 -25 -58 -15 -58 4 0 13 16 19 35 12 38 12 41 -4
23z" />
        <path d="M5225 1750 c4 -6 11 -8 16 -5 14 9 11 15 -7 15 -8 0 -12 -5 -9 -10z" />
        <path
            d="M4057 1743 c-4 -3 -7 -15 -7 -25 0 -16 -10 -18 -72 -20 l-73 -2 68
-3 c41 -3 67 -8 67 -15 0 -21 12 0 20 36 8 37 8 41 -3 29z" />
        <path
            d="M5850 1718 c0 -37 -1 -38 -37 -39 l-38 -2 40 -6 c22 -4 43 -5 48 -3
10 5 8 54 -3 72 -7 11 -10 5 -10 -22z" />
        <path
            d="M5276 1719 c-29 -23 -34 -42 -10 -37 8 2 14 6 12 9 -2 4 6 16 16 28
24 27 16 27 -18 0z" />
        <path
            d="M5960 1704 c0 -33 -2 -36 -25 -32 -14 3 -28 1 -31 -3 -3 -5 13 -9 36
-9 l41 0 -3 40 c-2 50 -18 53 -18 4z" />
        <path d="M6000 1689 c0 -29 2 -50 4 -48 9 9 13 90 5 95 -5 3 -9 -18 -9 -47z" />
        <path d="M3472 1724 c8 -7 88 -8 95 0 4 3 -18 6 -47 6 -29 0 -51 -3 -48 -6z" />
        <path
            d="M4251 1713 c-1 -21 -6 -23 -68 -24 l-68 -1 52 -8 c29 -4 60 -10 68
-14 16 -6 31 33 22 56 -3 7 -6 3 -6 -9z" />
        <path d="M4575 1720 c-3 -5 -1 -10 4 -10 6 0 11 5 11 10 0 6 -2 10 -4 10 -3 0
-8 -4 -11 -10z" />
        <path d="M5030 1715 c-32 -18 -25 -18 25 0 22 8 31 14 20 14 -11 0 -31 -6 -45
-14z" />
        <path d="M5116 1702 l-19 -27 24 22 c12 12 21 24 18 27 -2 2 -13 -8 -23 -22z" />
        <path d="M5339 1709 c-23 -19 -23 -20 -2 -10 12 6 25 16 28 21 10 16 -1 12
-26 -11z" />
        <path
            d="M2022 1689 c-25 -31 -20 -42 5 -11 14 16 14 16 9 0 -3 -10 -1 -18 4
-18 6 0 10 14 10 30 0 17 -1 30 -2 29 -2 0 -13 -13 -26 -30z" />
        <path
            d="M2700 1680 c0 -26 -5 -40 -13 -40 -16 0 -70 -60 -62 -69 4 -3 11 2
16 12 6 9 17 17 24 17 8 0 15 7 15 15 0 8 6 15 14 15 9 0 15 15 18 45 2 25 0
45 -4 45 -5 0 -8 -18 -8 -40z" />
        <path d="M4656 1705 c-3 -9 -6 -22 -5 -28 0 -7 5 -1 10 12 5 13 8 26 5 28 -2
2 -6 -3 -10 -12z" />
        <path d="M5390 1703 c0 -7 4 -13 9 -13 5 0 11 6 14 13 3 8 -1 14 -9 14 -8 0
-14 -6 -14 -14z" />
        <path d="M1600 1695 c-7 -9 -8 -15 -2 -15 5 0 12 7 16 15 3 8 4 15 2 15 -2 0
-9 -7 -16 -15z" />
        <path
            d="M1655 1690 c-10 -11 -13 -20 -7 -20 6 0 16 9 22 20 6 11 9 20 7 20
-2 0 -12 -9 -22 -20z" />
        <path d="M5360 1691 c-6 -12 -7 -21 -1 -21 10 0 24 30 17 37 -2 3 -9 -5 -16
-16z" />
        <path d="M5453 1692 c1 -14 5 -18 11 -12 7 7 6 14 -1 21 -9 9 -12 7 -10 -9z" />
        <path
            d="M2165 1680 c4 -13 2 -20 -7 -20 -8 0 -9 -3 -2 -8 6 -4 10 -54 10
-129 -1 -66 2 -116 7 -110 11 18 7 287 -5 287 -5 0 -6 -9 -3 -20z" />
        <path d="M4421 1680 c-17 -15 -19 -20 -7 -20 8 0 20 9 26 20 13 25 11 25 -19
0z" />
        <path d="M5069 1683 c-13 -16 -12 -17 4 -4 16 13 21 21 13 21 -2 0 -10 -8 -17
-17z" />
        <path d="M0 1678 c0 -4 32 -8 72 -8 39 0 69 2 66 5 -8 9 -138 11 -138 3z" />
        <path d="M4456 1681 c-4 -5 3 -7 14 -4 23 6 26 13 6 13 -8 0 -17 -4 -20 -9z" />
        <path
            d="M4814 1682 c4 -8 0 -12 -12 -12 -22 0 -78 -48 -67 -58 3 -4 11 1 16
10 5 10 16 15 24 12 8 -4 18 1 21 10 3 9 12 16 20 16 17 0 18 16 2 26 -7 4 -8
3 -4 -4z" />
        <path d="M5420 1680 c-9 -6 -10 -10 -3 -10 6 0 15 5 18 10 8 12 4 12 -15 0z" />
        <path d="M5668 1683 c7 -3 16 -2 19 1 4 3 -2 6 -13 5 -11 0 -14 -3 -6 -6z" />
        <path d="M1820 1669 c0 -5 5 -7 10 -4 6 3 10 8 10 11 0 2 -4 4 -10 4 -5 0 -10
-5 -10 -11z" />
        <path
            d="M4325 1670 c3 -5 17 -10 31 -10 13 0 24 5 24 10 0 6 -14 10 -31 10
-17 0 -28 -4 -24 -10z" />
        <path d="M4935 1670 c-3 -5 1 -10 9 -10 8 0 18 5 21 10 3 6 -1 10 -9 10 -8 0
-18 -4 -21 -10z" />
        <path
            d="M5383 1668 c-9 -16 -16 -54 -7 -46 3 3 6 12 8 20 1 7 5 19 9 26 5 6
6 12 3 12 -3 0 -8 -6 -13 -12z" />
        <path d="M1585 1660 c-3 -5 -2 -10 4 -10 5 0 13 5 16 10 3 6 2 10 -4 10 -5 0
-13 -4 -16 -10z" />
        <path d="M1616 1653 c-6 -14 -5 -15 5 -6 7 7 10 15 7 18 -3 3 -9 -2 -12 -12z" />
        <path
            d="M1777 1649 c5 -16 -28 -44 -39 -34 -3 3 -5 -1 -5 -8 0 -19 47 -9 54
12 2 9 8 24 13 33 7 13 5 16 -9 15 -12 -1 -17 -7 -14 -18z" />
        <path d="M1977 1651 c-4 -17 -3 -21 5 -13 5 5 8 16 6 23 -3 8 -7 3 -11 -10z" />
        <path d="M3142 1578 c1 -95 5 -83 10 30 2 34 0 62 -4 62 -5 0 -7 -42 -6 -92z" />
        <path
            d="M5079 1659 c-8 -5 -10 -9 -5 -9 6 0 1 -7 -10 -15 -10 -8 -14 -15 -7
-15 7 0 22 10 34 23 16 16 20 17 16 5 -4 -11 -2 -15 7 -12 18 7 16 30 -4 31
-9 1 -23 -3 -31 -8z" />
        <path d="M5209 1653 c-13 -16 -12 -17 4 -4 16 13 21 21 13 21 -2 0 -10 -8 -17
-17z" />
        <path d="M5236 1653 c-6 -14 -5 -15 5 -6 7 7 10 15 7 18 -3 3 -9 -2 -12 -12z" />
        <path
            d="M2235 1633 c-3 -15 -12 -31 -18 -35 -8 -5 -5 -8 7 -8 12 0 16 -5 12
-16 -3 -9 -6 -27 -6 -40 0 -15 -6 -24 -15 -24 -8 0 -15 -4 -15 -9 0 -4 11 -6
25 -3 24 4 25 7 25 77 0 49 4 75 13 78 7 4 6 6 -4 6 -10 1 -20 -10 -24 -26z" />
        <path
            d="M2416 1652 c-3 -3 -6 -18 -6 -34 0 -26 -2 -28 -43 -28 -41 0 -43 -1
-44 -32 -1 -29 -1 -30 6 -8 6 21 14 26 51 30 35 4 46 9 48 25 10 64 18 34 23
-90 l5 -140 0 139 c-1 122 -3 139 -18 142 -9 1 -19 -1 -22 -4z" />
        <path d="M2810 1649 c0 -5 5 -7 10 -4 6 3 10 8 10 11 0 2 -4 4 -10 4 -5 0 -10
-5 -10 -11z" />
        <path d="M3393 1580 c0 -47 2 -66 4 -42 2 23 2 61 0 85 -2 23 -4 4 -4 -43z" />
        <path d="M4040 1620 c0 -22 2 -40 4 -40 2 0 6 18 8 40 2 22 0 40 -4 40 -5 0
-8 -18 -8 -40z" />
        <path d="M4685 1650 c-3 -6 1 -7 9 -4 18 7 21 14 7 14 -6 0 -13 -4 -16 -10z" />
        <path d="M5035 1650 c-3 -5 -2 -10 4 -10 5 0 13 5 16 10 3 6 2 10 -4 10 -5 0
-13 -4 -16 -10z" />
        <path d="M5321 1642 c-17 -31 -13 -40 5 -14 9 13 14 26 11 29 -3 2 -10 -4 -16
-15z" />
        <path
            d="M5459 1655 c-1 -3 -2 -8 -3 -12 -3 -20 -18 -32 -31 -26 -8 3 -15 1
-15 -5 0 -13 27 -9 42 6 12 12 20 42 12 42 -2 0 -5 -2 -5 -5z" />
        <path
            d="M160 1605 l0 -44 -57 -4 -58 -3 63 -2 62 -2 0 50 c0 28 -2 50 -5 50
-3 0 -5 -20 -5 -45z" />
        <path d="M1537 1630 c-3 -11 -3 -20 -1 -20 2 0 8 9 14 20 6 11 7 20 2 20 -6 0
-12 -9 -15 -20z" />
        <path
            d="M1669 1643 c-1 -5 -1 -11 0 -15 0 -5 -9 -8 -22 -8 -12 0 -28 -9 -35
-20 -7 -11 -8 -20 -3 -20 5 0 11 6 14 14 3 8 16 16 28 18 12 2 23 11 25 21 1
9 0 17 -2 17 -2 0 -5 -3 -5 -7z" />
        <path d="M2000 1634 c0 -8 5 -12 10 -9 6 3 10 10 10 16 0 5 -4 9 -10 9 -5 0
-10 -7 -10 -16z" />
        <path
            d="M2500 1621 c0 -16 -6 -32 -12 -34 -8 -3 -6 -6 5 -6 12 -1 17 7 17 28
0 16 6 32 13 34 7 3 5 6 -5 6 -13 1 -18 -7 -18 -28z" />
        <path d="M2543 1615 c0 -22 2 -30 4 -17 2 12 2 30 0 40 -3 9 -5 -1 -4 -23z" />
        <path d="M4243 1610 c0 -25 2 -35 4 -22 2 12 2 32 0 45 -2 12 -4 2 -4 -23z" />
        <path d="M4439 1648 c-5 -9 -4 -56 1 -52 5 6 8 54 3 54 -2 0 -4 -1 -4 -2z" />
        <path
            d="M4710 1635 c-7 -9 -11 -18 -8 -20 3 -3 11 1 18 10 7 9 11 18 8 20 -3
3 -11 -1 -18 -10z" />
        <path
            d="M4906 1641 c-3 -5 -15 -7 -25 -4 -10 3 -22 0 -25 -5 -9 -14 42 -8 56
6 7 7 9 12 6 12 -4 0 -9 -4 -12 -9z" />
        <path d="M5154 1635 c-18 -14 -18 -14 4 -8 12 3 22 9 22 14 0 12 -3 11 -26 -6z" />
        <path d="M2896 1624 c-17 -12 -17 -14 -4 -14 9 0 20 5 23 11 11 17 2 18 -19 3z" />
        <path
            d="M2968 1605 c-22 -20 -31 -35 -23 -35 8 0 19 9 25 20 6 11 15 20 21
20 6 0 7 -4 4 -10 -3 -5 -1 -10 4 -10 6 0 11 7 11 15 0 11 12 15 48 16 35 0
42 3 27 9 -42 18 -79 10 -117 -25z" />
        <path d="M4376 1628 c3 -5 10 -6 15 -3 13 9 11 12 -6 12 -8 0 -12 -4 -9 -9z" />
        <path
            d="M4469 1632 c-1 -4 0 -17 0 -28 2 -14 -5 -23 -19 -27 -13 -3 -19 -10
-15 -17 3 -6 3 -10 -2 -9 -19 3 -27 -2 -15 -10 18 -11 62 29 62 56 0 29 11 35
36 18 17 -11 25 -12 30 -3 4 7 3 8 -5 4 -6 -4 -13 -1 -16 6 -6 14 -54 23 -56
10z" />
        <path
            d="M5004 1625 c-4 -8 -14 -15 -24 -15 -11 0 -22 -5 -25 -10 -4 -6 -10
-8 -14 -5 -5 2 -17 -2 -27 -10 -18 -14 -17 -15 11 -9 17 4 35 10 40 15 6 4 14
7 19 6 5 -1 15 8 24 21 8 12 11 22 8 22 -4 0 -9 -7 -12 -15z" />
        <path
            d="M5280 1630 c-8 -5 -17 -7 -21 -4 -4 2 -10 0 -14 -5 -5 -9 44 -5 54 5
9 9 -5 12 -19 4z" />
        <path d="M5500 1624 c0 -8 5 -12 10 -9 6 3 10 10 10 16 0 5 -4 9 -10 9 -5 0
-10 -7 -10 -16z" />
        <path
            d="M5631 1627 c0 -10 -12 -22 -26 -27 -32 -12 -32 -19 0 -15 33 3 38 8
32 37 -3 15 -5 17 -6 5z" />
        <path d="M1595 1620 c-3 -5 -1 -10 4 -10 6 0 11 5 11 10 0 6 -2 10 -4 10 -3 0
-8 -4 -11 -10z" />
        <path
            d="M1823 1623 c-13 -2 -23 -8 -23 -13 0 -12 28 -6 42 8 7 7 10 11 8 11
-3 -1 -15 -4 -27 -6z" />
        <path
            d="M4604 1592 c0 -23 4 -39 8 -36 5 3 7 11 5 17 -2 7 0 20 5 31 7 12 7
16 0 12 -6 -3 -12 -1 -14 5 -2 7 -4 -7 -4 -29z" />
        <path d="M4926 1618 c3 -4 9 -8 15 -8 5 0 9 4 9 8 0 5 -7 9 -15 9 -8 0 -12 -4
-9 -9z" />
        <path d="M5189 1613 c-13 -15 -12 -15 11 -3 34 17 36 20 18 20 -9 0 -22 -7
-29 -17z" />
        <path d="M5335 1620 c-8 -13 -1 -24 14 -19 6 3 7 10 2 18 -6 10 -10 10 -16 1z" />
        <path
            d="M5465 1604 c-20 -31 -18 -35 15 -17 14 7 20 13 13 13 -7 0 -10 7 -7
15 9 23 -2 18 -21 -11z" />
        <path
            d="M5681 1608 c-5 -13 -5 -24 0 -26 5 -2 6 -9 3 -14 -4 -6 -3 -8 2 -5
10 6 18 67 9 67 -3 0 -9 -10 -14 -22z" />
        <path
            d="M5750 1628 c-2 -5 -3 -13 -4 -19 0 -7 -10 -15 -21 -20 -19 -7 -19 -8
3 -8 24 -1 38 19 29 41 -3 7 -6 10 -7 6z" />
        <path d="M6007 1623 c-2 -5 -1 -30 3 -58 l7 -50 2 58 c1 54 -2 67 -12 50z" />
        <path
            d="M1067 1581 l-8 -43 -179 7 c-126 5 -180 4 -180 -3 0 -12 354 -22 372
-11 5 3 8 26 6 50 l-3 44 -8 -44z" />
        <path
            d="M1859 1617 c-1 -4 -2 -11 -3 -15 0 -5 -14 -21 -31 -36 l-30 -28 40
28 c22 16 42 30 44 31 3 2 -1 9 -7 15 -7 7 -13 9 -13 5z" />
        <path d="M4350 1605 c-7 -9 -11 -17 -9 -20 3 -2 10 5 17 15 14 24 10 26 -8 5z" />
        <path
            d="M5861 1608 c-1 -14 -10 -18 -37 -18 -21 0 -33 -4 -29 -10 3 -5 20
-10 36 -10 30 0 45 18 36 42 -4 8 -6 6 -6 -4z" />
        <path d="M430 1600 c0 -5 4 -10 9 -10 6 0 13 5 16 10 3 6 -1 10 -9 10 -9 0
-16 -4 -16 -10z" />
        <path
            d="M1685 1580 c-4 -17 -15 -35 -26 -40 -10 -6 -19 -18 -19 -28 0 -12 9
-7 30 18 16 19 30 45 30 58 0 31 -7 27 -15 -8z" />
        <path d="M2027 1603 c-11 -10 -8 -20 6 -20 8 0 14 6 14 14 0 14 -10 17 -20 6z" />
        <path d="M4760 1599 c0 -5 5 -7 10 -4 6 3 10 8 10 11 0 2 -4 4 -10 4 -5 0 -10
-5 -10 -11z" />
        <path
            d="M5047 1596 c-4 -10 -3 -15 3 -11 6 3 10 1 10 -4 0 -6 5 -11 12 -11 6
0 8 3 5 7 -4 3 -1 13 6 22 10 14 10 14 -5 3 -13 -10 -17 -10 -20 0 -3 8 -7 6
-11 -6z" />
        <path d="M5511 1589 c-13 -11 -22 -22 -19 -24 2 -3 15 6 28 20 28 30 24 32 -9
4z" />
        <path
            d="M5970 1597 c0 -13 -10 -17 -37 -18 -28 -1 -31 -3 -13 -6 14 -3 30 -9
37 -15 9 -7 14 -2 19 17 3 14 4 29 0 32 -3 4 -6 -1 -6 -10z" />
        <path d="M2836 1583 c-6 -14 -5 -15 5 -6 7 7 10 15 7 18 -3 3 -9 -2 -12 -12z" />
        <path d="M3206 1583 c-6 -14 -5 -15 5 -6 7 7 10 15 7 18 -3 3 -9 -2 -12 -12z" />
        <path d="M4660 1589 c0 -5 5 -7 10 -4 6 3 10 8 10 11 0 2 -4 4 -10 4 -5 0 -10
-5 -10 -11z" />
        <path d="M4698 1593 c7 -3 16 -2 19 1 4 3 -2 6 -13 5 -11 0 -14 -3 -6 -6z" />
        <path d="M5227 1593 c-4 -3 -7 -11 -7 -17 0 -6 5 -5 12 2 6 6 9 14 7 17 -3 3
-9 2 -12 -2z" />
        <path d="M5555 1590 c-3 -5 -1 -10 4 -10 6 0 11 5 11 10 0 6 -2 10 -4 10 -3 0
-8 -4 -11 -10z" />
        <path d="M338 1578 c9 -9 15 -9 24 0 9 9 7 12 -12 12 -19 0 -21 -3 -12 -12z" />
        <path
            d="M1770 1581 c-8 -6 -17 -8 -21 -5 -4 2 -5 -5 -2 -15 4 -15 -5 -24 -36
-40 -23 -12 -41 -27 -41 -34 0 -8 3 -9 8 -1 9 14 46 34 62 34 7 0 10 -7 6 -15
-5 -13 -2 -13 19 1 25 17 33 34 15 34 -5 0 -10 -4 -10 -10 0 -5 -4 -10 -9 -10
-12 0 -2 38 12 47 6 3 7 1 3 -5 -4 -7 -2 -12 3 -12 6 0 11 9 11 20 0 23 0 23
-20 11z" />
        <path d="M2870 1573 c0 -13 5 -23 10 -23 13 0 13 11 0 30 -8 12 -10 11 -10 -7z" />
        <path d="M3482 1570 c0 -14 2 -19 5 -12 2 6 2 18 0 25 -3 6 -5 1 -5 -13z" />
        <path d="M4406 1573 c-6 -14 -5 -15 5 -6 7 7 10 15 7 18 -3 3 -9 -2 -12 -12z" />
        <path d="M4630 1579 c0 -5 5 -7 10 -4 6 3 10 8 10 11 0 2 -4 4 -10 4 -5 0 -10
-5 -10 -11z" />
        <path d="M4815 1579 c-4 -6 -5 -12 -2 -15 2 -3 7 2 10 11 7 17 1 20 -8 4z" />
        <path d="M598 1573 c6 -2 18 -2 25 0 6 3 1 5 -13 5 -14 0 -19 -2 -12 -5z" />
        <path
            d="M2090 1546 c0 -19 -6 -37 -12 -39 -8 -3 -6 -6 5 -6 13 -1 17 7 17 39
0 22 -2 40 -5 40 -3 0 -5 -15 -5 -34z" />
        <path
            d="M2574 1555 c-7 -29 -1 -41 15 -30 15 9 14 28 -1 19 -7 -4 -4 2 6 14
17 19 17 22 3 22 -9 0 -19 -11 -23 -25z" />
        <path
            d="M3006 1566 c-11 -8 -13 -15 -6 -26 6 -10 10 -11 10 -2 0 7 13 12 31
12 16 0 28 4 25 9 -10 15 -44 19 -60 7z" />
        <path d="M3317 1573 c-4 -3 -7 -11 -7 -17 0 -6 5 -5 12 2 6 6 9 14 7 17 -3 3
-9 2 -12 -2z" />
        <path d="M3610 1523 c0 -31 3 -54 6 -50 11 11 15 107 4 107 -6 0 -10 -25 -10
-57z" />
        <path d="M3830 1569 c0 -5 5 -7 10 -4 6 3 10 8 10 11 0 2 -4 4 -10 4 -5 0 -10
-5 -10 -11z" />
        <path d="M4370 1564 c0 -8 5 -12 10 -9 6 3 10 10 10 16 0 5 -4 9 -10 9 -5 0
-10 -7 -10 -16z" />
        <path
            d="M4745 1563 c-8 -10 -14 -21 -13 -25 2 -4 -7 -15 -19 -23 -13 -9 -23
-21 -23 -26 0 -6 19 6 42 25 23 20 45 36 50 36 4 0 8 4 8 10 0 5 -7 6 -17 3
-11 -4 -14 -3 -9 5 11 18 -2 14 -19 -5z m15 -12 c0 -5 -7 -12 -16 -15 -14 -5
-15 -4 -4 9 14 17 20 19 20 6z" />
        <path
            d="M5093 1564 c1 -18 4 -20 19 -10 10 6 18 15 18 20 0 4 -6 3 -14 -3
-11 -9 -15 -9 -19 1 -3 7 -5 3 -4 -8z" />
        <path
            d="M1424 1553 c-8 -13 -33 -18 -120 -23 l-109 -7 90 -3 c50 -1 94 -2 98
-1 4 1 18 3 30 5 13 2 23 11 25 24 4 26 0 28 -14 5z" />
        <path
            d="M2408 1539 l-3 -32 -70 1 c-38 0 -63 -3 -55 -7 8 -5 44 -8 79 -7 l65
1 1 38 c3 45 -12 50 -17 6z" />
        <path
            d="M2500 1540 c0 -17 -7 -33 -17 -39 -16 -9 -16 -10 5 -11 19 0 22 5 22
40 0 22 -2 40 -5 40 -3 0 -5 -13 -5 -30z" />
        <path d="M2741 1563 c-1 -6 -4 -20 -7 -30 -5 -17 -5 -17 6 0 6 10 9 23 6 30
-3 9 -5 9 -5 0z" />
        <path d="M4044 1556 c-3 -8 -4 -27 -2 -43 3 -23 5 -20 9 15 5 43 2 53 -7 28z" />
        <path
            d="M4846 1549 c-18 -18 -32 -74 -16 -64 5 3 7 11 4 18 -2 7 5 22 17 33
21 18 22 18 16 1 -5 -13 -3 -17 5 -15 7 3 15 13 16 23 2 10 0 15 -6 11 -6 -3
-12 -2 -14 2 -1 5 -11 1 -22 -9z" />
        <path
            d="M4932 1561 c-8 -4 -14 -14 -15 -22 -2 -8 -7 -21 -12 -29 -8 -13 -7
-13 8 -1 9 7 32 17 50 22 32 8 32 8 -7 6 -33 -3 -36 -2 -20 10 20 14 16 27 -4
14z" />
        <path d="M5136 1553 c-6 -14 -5 -15 5 -6 7 7 10 15 7 18 -3 3 -9 -2 -12 -12z" />
        <path
            d="M5367 1556 c-9 -10 -21 -25 -26 -35 -8 -13 -5 -17 12 -18 12 0 16 1
10 4 -22 8 5 45 28 38 11 -4 19 -2 19 5 0 6 -4 9 -9 6 -5 -4 -11 -1 -13 5 -3
8 -10 6 -21 -5z" />
        <path d="M5540 1562 c0 -5 7 -9 15 -9 8 0 12 4 9 9 -3 4 -9 8 -15 8 -5 0 -9
-4 -9 -8z" />
        <path d="M8 1553 c7 -3 16 -2 19 1 4 3 -2 6 -13 5 -11 0 -14 -3 -6 -6z" />
        <path
            d="M1166 1548 c3 -4 -11 -8 -30 -8 -20 0 -36 -4 -36 -10 0 -5 18 -10 39
-10 22 0 43 5 46 10 3 6 16 10 27 10 32 0 14 12 -21 14 -16 1 -28 -2 -25 -6z" />
        <path d="M2710 1549 c0 -5 5 -7 10 -4 6 3 10 8 10 11 0 2 -4 4 -10 4 -5 0 -10
-5 -10 -11z" />
        <path d="M3179 1543 c-13 -16 -12 -17 4 -4 9 7 17 15 17 17 0 8 -8 3 -21 -13z" />
        <path d="M3247 1553 c-4 -3 -7 -11 -7 -17 0 -6 5 -5 12 2 6 6 9 14 7 17 -3 3
-9 2 -12 -2z" />
        <path d="M4243 1520 c0 -25 2 -35 4 -22 2 12 2 32 0 45 -2 12 -4 2 -4 -23z" />
        <path
            d="M5180 1545 c-7 -8 -9 -15 -4 -15 4 0 -1 -7 -12 -16 -18 -14 -18 -15
4 -4 12 6 20 15 17 20 -3 4 1 10 7 13 7 2 10 7 7 11 -3 4 -12 0 -19 -9z" />
        <path d="M5722 1530 c0 -19 2 -27 5 -17 2 9 2 25 0 35 -3 9 -5 1 -5 -18z" />
        <path d="M5852 1530 c0 -19 2 -27 5 -17 2 9 2 25 0 35 -3 9 -5 1 -5 -18z" />
        <path d="M1615 1539 c-11 -17 1 -21 15 -4 8 9 8 15 2 15 -6 0 -14 -5 -17 -11z" />
        <path d="M2541 1534 c0 -11 3 -14 6 -6 3 7 2 16 -1 19 -3 4 -6 -2 -5 -13z" />
        <path d="M3207 1543 c-11 -20 -16 -62 -8 -67 5 -3 11 12 13 34 4 40 3 46 -5
33z" />
        <path d="M3457 1544 c-4 -4 -7 -14 -7 -23 0 -11 3 -12 11 -4 6 6 10 16 7 23
-2 6 -7 8 -11 4z" />
        <path d="M5425 1540 c-3 -5 -1 -10 4 -10 6 0 11 5 11 10 0 6 -2 10 -4 10 -3 0
-8 -4 -11 -10z" />
        <path
            d="M1565 1533 c-43 -6 -56 -23 -18 -23 17 0 36 7 43 15 7 8 11 14 9 14
-2 -1 -17 -4 -34 -6z" />
        <path d="M1963 1533 c9 -2 23 -2 30 0 6 3 -1 5 -18 5 -16 0 -22 -2 -12 -5z" />
        <path d="M2880 1520 c-9 -16 -8 -18 5 -14 8 4 15 12 15 20 0 20 -7 17 -20 -6z" />
        <path d="M4586 1531 c-4 -5 3 -7 14 -4 23 6 26 13 6 13 -8 0 -17 -4 -20 -9z" />
        <path d="M4645 1530 c-3 -5 -1 -10 4 -10 6 0 11 5 11 10 0 6 -2 10 -4 10 -3 0
-8 -4 -11 -10z" />
        <path
            d="M4792 1515 c-6 -14 -17 -25 -23 -25 -8 0 -7 5 2 17 13 15 12 15 -8 5
-30 -16 -38 -31 -23 -45 9 -9 11 -8 8 3 -2 10 4 14 19 12 16 -2 26 5 38 27 8
17 12 31 7 31 -5 0 -14 -11 -20 -25z" />
        <path d="M5450 1525 c-11 -13 -10 -14 4 -9 9 3 16 10 16 15 0 13 -6 11 -20 -6z" />
        <path d="M5485 1530 c-3 -5 -2 -10 4 -10 5 0 13 5 16 10 3 6 2 10 -4 10 -5 0
-13 -4 -16 -10z" />
        <path d="M5615 1530 c-3 -5 1 -10 9 -10 9 0 16 5 16 10 0 6 -4 10 -9 10 -6 0
-13 -4 -16 -10z" />
        <path
            d="M158 1486 c-5 -27 -8 -71 -8 -97 0 -37 -3 -47 -14 -43 -8 3 -16 1
-20 -4 -3 -5 5 -8 17 -7 18 1 23 10 30 50 4 26 7 71 5 99 l-3 51 -7 -49z" />
        <path d="M665 1518 c-8 -24 -10 -178 -2 -178 4 0 7 12 8 28 0 15 2 57 4 95 3
63 0 82 -10 55z" />
        <path d="M1908 1523 c7 -3 16 -2 19 1 4 3 -2 6 -13 5 -11 0 -14 -3 -6 -6z" />
        <path
            d="M2658 1523 c-14 -3 -44 -61 -36 -69 2 -1 15 16 30 37 15 21 27 38 25
38 -1 -1 -10 -3 -19 -6z" />
        <path
            d="M2686 1495 c-4 -22 -13 -46 -19 -54 -10 -11 -9 -13 3 -9 15 5 33 60
28 86 -2 10 -8 -1 -12 -23z" />
        <path
            d="M5010 1488 c-24 -23 -36 -39 -26 -35 10 4 22 7 27 7 5 0 9 5 9 12 0
6 10 22 22 35 35 37 16 26 -32 -19z" />
        <path d="M5100 1515 c-14 -16 -10 -18 14 -9 9 3 16 10 16 15 0 14 -16 11 -30
-6z" />
        <path d="M1800 1512 c0 -4 17 -6 38 -4 58 5 62 10 10 11 -27 1 -48 -3 -48 -7z" />
        <path d="M2606 1505 c-3 -8 -1 -15 4 -15 6 0 10 7 10 15 0 8 -2 15 -4 15 -2 0
-6 -7 -10 -15z" />
        <path d="M5049 1493 l-24 -28 28 24 c25 23 32 31 24 31 -2 0 -14 -12 -28 -27z" />
        <path d="M5479 1488 l-34 -29 47 23 c48 23 59 35 35 35 -7 0 -29 -13 -48 -29z" />
        <path
            d="M1060 1425 l0 -84 -117 -4 -118 -3 123 -2 c67 -1 122 1 123 6 6 44 5
172 -2 172 -5 0 -9 -38 -9 -85z" />
        <path
            d="M2748 1478 c0 -18 0 -46 1 -62 3 -28 2 -29 -38 -23 -23 3 -41 2 -41
-2 0 -4 20 -8 45 -10 l45 -2 0 66 c0 66 -9 91 -12 33z" />
        <path
            d="M2839 1508 c-6 -17 -12 -188 -6 -188 4 0 7 34 7 76 0 41 5 84 10 95
7 13 7 19 0 19 -5 0 -10 -1 -11 -2z" />
        <path d="M3510 1490 c0 -11 2 -20 4 -20 2 0 6 9 9 20 3 11 1 20 -4 20 -5 0 -9
-9 -9 -20z" />
        <path d="M4555 1499 c-4 -6 -5 -12 -2 -15 2 -3 7 2 10 11 7 17 1 20 -8 4z" />
        <path
            d="M1420 1420 l0 -80 -165 0 c-91 0 -165 -3 -165 -7 0 -5 50 -7 111 -5
72 2 109 0 105 -7 -7 -10 104 -3 115 8 10 9 17 171 7 171 -4 0 -8 -36 -8 -80z" />
        <path
            d="M2547 1482 c-19 -21 -22 -42 -7 -42 6 0 10 6 10 14 0 8 10 22 22 30
16 12 18 16 7 16 -9 0 -23 -8 -32 -18z" />
        <path
            d="M3566 1468 c-3 -17 -4 -33 -1 -36 3 -3 5 2 5 12 0 9 4 15 9 12 5 -3
8 5 7 19 -2 35 -12 31 -20 -7z" />
        <path d="M4905 1486 c-18 -13 -18 -14 8 -9 15 3 27 9 27 14 0 13 -13 11 -35
-5z" />
        <path
            d="M6012 1282 c2 -173 0 -222 -9 -222 -7 0 -13 -6 -13 -14 0 -8 -3 -22
-7 -32 -4 -12 -3 -15 5 -10 7 4 12 3 12 -3 0 -5 -4 -12 -9 -15 -12 -8 -21 -46
-11 -46 12 0 29 56 23 78 -3 12 2 22 12 26 15 5 16 27 11 228 -4 122 -9 224
-12 227 -3 3 -4 -94 -2 -217z" />
        <path d="M1625 1479 c-4 -6 -5 -12 -2 -15 2 -3 7 2 10 11 7 17 1 20 -8 4z" />
        <path
            d="M1700 1470 c-6 -11 -8 -20 -6 -20 3 0 10 9 16 20 6 11 8 20 6 20 -3
0 -10 -9 -16 -20z" />
        <path d="M1770 1463 c0 -22 2 -25 10 -13 13 20 13 40 0 40 -5 0 -10 -12 -10
-27z" />
        <path
            d="M2238 1484 c-5 -4 -8 -38 -8 -75 0 -56 -3 -68 -17 -72 -14 -4 -13 -5
4 -6 16 -1 24 6 28 22 8 31 2 141 -7 131z" />
        <path
            d="M2901 1462 c-1 -48 -22 -122 -34 -122 -8 0 -8 -3 0 -11 14 -14 32 -4
31 19 0 9 4 37 10 61 6 25 7 52 2 65 -8 18 -9 16 -9 -12z" />
        <path
            d="M3392 1473 c-22 -20 -38 -73 -22 -73 6 0 13 14 17 30 3 17 12 30 19
30 8 0 14 7 14 15 0 19 -3 19 -28 -2z" />
        <path d="M5351 1476 c-9 -10 -8 -15 3 -19 10 -4 14 0 13 14 -2 23 -1 23 -16 5z" />
        <path
            d="M5540 1475 c-7 -8 -16 -13 -19 -10 -4 2 -8 -1 -9 -8 -3 -13 -11 -105
-11 -124 -1 -6 -16 -13 -33 -15 -31 -3 -33 -6 -36 -43 -2 -22 0 -36 5 -32 4 5
8 20 8 35 0 23 4 26 35 26 l35 1 1 55 c1 44 5 55 18 54 8 -1 14 2 11 6 -3 5
-1 11 5 15 5 3 10 11 10 16 0 6 -7 3 -16 -5 -31 -32 -28 -11 4 27 8 9 13 17
10 17 -3 0 -11 -7 -18 -15z" />
        <path d="M5722 1470 c0 -14 2 -19 5 -12 2 6 2 18 0 25 -3 6 -5 1 -5 -13z" />
        <path d="M5740 1479 c0 -5 5 -7 10 -4 6 3 10 8 10 11 0 2 -4 4 -10 4 -5 0 -10
-5 -10 -11z" />
        <path d="M2092 1460 c0 -14 2 -19 5 -12 2 6 2 18 0 25 -3 6 -5 1 -5 -13z" />
        <path
            d="M2410 1409 l0 -70 -55 2 c-30 1 -58 0 -62 -4 -3 -4 24 -7 60 -7 l67
0 0 71 c0 50 3 68 12 63 7 -4 8 -3 4 4 -17 28 -26 7 -26 -59z" />
        <path
            d="M2501 1475 c-2 -5 -3 -36 -2 -67 0 -44 -4 -60 -17 -67 -16 -10 -16
-10 1 -11 24 0 29 16 24 91 -2 35 -4 60 -6 54z" />
        <path d="M3135 1470 c-3 -5 -1 -10 4 -10 6 0 11 5 11 10 0 6 -2 10 -4 10 -3 0
-8 -4 -11 -10z" />
        <path
            d="M4570 1464 c-8 -8 -9 -14 -4 -13 27 5 35 -2 29 -23 -7 -23 -7 -23 9
-3 17 22 20 36 9 34 -20 -3 -34 2 -28 11 10 16 -1 12 -15 -6z" />
        <path
            d="M5078 1473 c-10 -2 -18 -14 -18 -25 0 -12 1 -19 3 -17 1 2 11 14 21
27 11 12 17 21 15 21 -2 -1 -12 -3 -21 -6z" />
        <path d="M5145 1470 c-3 -5 -1 -10 4 -10 6 0 11 5 11 10 0 6 -2 10 -4 10 -3 0
-8 -4 -11 -10z" />
        <path d="M5315 1470 c-3 -5 -1 -10 4 -10 6 0 11 5 11 10 0 6 -2 10 -4 10 -3 0
-8 -4 -11 -10z" />
        <path d="M5686 1465 c-3 -8 -1 -15 4 -15 6 0 10 7 10 15 0 8 -2 15 -4 15 -2 0
-6 -7 -10 -15z" />
        <path d="M1590 1459 c0 -5 5 -7 10 -4 6 3 10 8 10 11 0 2 -4 4 -10 4 -5 0 -10
-5 -10 -11z" />
        <path d="M1657 1463 c-4 -3 -7 -11 -7 -17 0 -6 5 -5 12 2 6 6 9 14 7 17 -3 3
-9 2 -12 -2z" />
        <path d="M3943 1463 c15 -2 37 -2 50 0 12 2 0 4 -28 4 -27 0 -38 -2 -22 -4z" />
        <path d="M4038 1463 c7 -3 16 -2 19 1 4 3 -2 6 -13 5 -11 0 -14 -3 -6 -6z" />
        <path d="M4240 1459 c0 -5 5 -7 10 -4 6 3 10 8 10 11 0 2 -4 4 -10 4 -5 0 -10
-5 -10 -11z" />
        <path
            d="M4850 1455 c-7 -8 -17 -12 -23 -8 -6 3 -7 1 -3 -5 5 -9 12 -8 26 1
11 6 20 15 20 19 0 12 -6 10 -20 -7z" />
        <path d="M5110 1455 c0 -8 2 -15 4 -15 2 0 6 7 10 15 3 8 1 15 -4 15 -6 0 -10
-7 -10 -15z" />
        <path d="M5250 1459 c0 -5 5 -7 10 -4 6 3 10 8 10 11 0 2 -4 4 -10 4 -5 0 -10
-5 -10 -11z" />
        <path d="M5390 1459 c0 -5 5 -7 10 -4 6 3 10 8 10 11 0 2 -4 4 -10 4 -5 0 -10
-5 -10 -11z" />
        <path
            d="M3620 1402 c0 -32 -5 -63 -12 -70 -8 -8 -8 -12 -1 -12 23 0 34 29 31
84 -4 74 -18 72 -18 -2z" />
        <path d="M5280 1445 c-8 -9 -8 -15 -2 -15 12 0 26 19 19 26 -2 2 -10 -2 -17
-11z" />
        <path
            d="M5480 1445 c-7 -9 -19 -14 -26 -11 -7 3 -16 0 -20 -6 -4 -7 -3 -8 4
-4 16 10 15 -6 0 -24 -7 -8 3 -1 22 15 19 17 37 31 39 33 2 1 2 4 -1 7 -3 3
-11 -2 -18 -10z" />
        <path
            d="M5646 1435 c-9 -13 -16 -44 -16 -69 0 -43 -1 -45 -32 -48 -31 -3 -33
-6 -35 -43 -2 -29 0 -35 6 -20 4 11 6 26 4 33 -4 8 6 12 31 12 39 0 40 2 37
63 -1 21 2 44 7 50 10 14 23 47 18 47 -2 0 -11 -11 -20 -25z" />
        <path d="M5820 1444 c0 -8 5 -12 10 -9 6 4 8 11 5 16 -9 14 -15 11 -15 -7z" />
        <path
            d="M3840 1395 c0 -52 -1 -55 -25 -55 -14 0 -25 -5 -25 -11 0 -6 14 -9
33 -7 l32 3 -3 54 c-2 36 1 57 10 62 10 7 9 9 -4 9 -15 0 -18 -9 -18 -55z" />
        <path d="M4518 1443 c7 -3 16 -2 19 1 4 3 -2 6 -13 5 -11 0 -14 -3 -6 -6z" />
        <path
            d="M5600 1435 c-7 -8 -19 -15 -26 -15 -8 0 -14 -5 -14 -10 0 -7 6 -7 19
-1 10 6 20 8 23 6 2 -2 9 5 16 15 14 23 0 27 -18 5z" />
        <path d="M5850 1435 c0 -8 2 -15 4 -15 2 0 6 7 10 15 3 8 1 15 -4 15 -6 0 -10
-7 -10 -15z" />
        <path d="M2559 1423 c-13 -16 -12 -17 4 -4 9 7 17 15 17 17 0 8 -8 3 -21 -13z" />
        <path
            d="M4050 1390 c0 -50 0 -50 -32 -51 -18 -1 -50 0 -70 1 -24 1 -38 -3
-38 -10 0 -8 12 -11 35 -8 27 3 35 0 35 -12 0 -10 3 -11 8 -3 4 6 23 13 42 15
l35 3 0 57 c0 32 -3 58 -7 58 -5 0 -8 -22 -8 -50z" />
        <path
            d="M4634 1415 c-9 -14 -19 -23 -23 -21 -4 3 -5 -11 -3 -30 4 -34 4 -34
-37 -34 -38 0 -41 -2 -40 -27 2 -24 2 -25 6 -6 4 19 9 22 37 17 34 -5 60 12
55 38 -4 20 12 62 30 75 10 8 11 12 4 13 -7 0 -20 -11 -29 -25z" />
        <path
            d="M4743 1420 c-3 -11 -12 -20 -19 -20 -8 0 -14 -5 -14 -10 0 -7 6 -7
20 0 11 6 20 15 20 21 0 5 10 14 23 19 l22 9 -23 0 c-16 1 -26 -6 -29 -19z" />
        <path d="M5325 1431 c-3 -5 -2 -12 3 -15 5 -3 9 1 9 9 0 17 -3 19 -12 6z" />
        <path d="M5961 1424 c0 -11 3 -14 6 -6 3 7 2 16 -1 19 -3 4 -6 -2 -5 -13z" />
        <path
            d="M2986 1415 c-3 -8 -1 -15 4 -15 6 0 10 4 10 9 0 5 8 12 18 14 13 4
12 5 -4 6 -12 0 -24 -6 -28 -14z" />
        <path
            d="M3247 1423 c-4 -3 -7 -13 -7 -22 0 -12 3 -12 12 -3 7 7 21 12 33 13
20 0 20 0 0 9 -26 11 -30 11 -38 3z" />
        <path
            d="M4248 1425 c-3 -3 -3 -26 0 -50 l5 -45 -42 0 c-36 0 -41 -3 -40 -22
1 -17 2 -19 6 -5 3 12 15 17 44 17 l39 0 0 55 c0 54 -1 60 -12 50z" />
        <path
            d="M4435 1381 l7 -49 -46 -4 c-25 -2 -47 0 -48 3 -2 4 -12 3 -23 -2 -19
-7 -19 -8 3 -8 14 -1 22 -7 22 -18 1 -17 1 -17 14 0 8 11 27 17 50 17 l36 0 0
55 c0 33 -4 55 -11 55 -7 0 -9 -16 -4 -49z" />
        <path d="M4795 1420 c-3 -6 1 -7 9 -4 18 7 21 14 7 14 -6 0 -13 -4 -16 -10z" />
        <path d="M4874 1408 l-19 -23 23 19 c12 11 22 21 22 23 0 8 -8 2 -26 -19z" />
        <path d="M2631 1406 c-7 -8 -11 -23 -8 -33 3 -14 6 -12 16 11 13 33 9 43 -8
22z" />
        <path d="M4660 1410 c-9 -6 -10 -10 -3 -10 6 0 15 5 18 10 8 12 4 12 -15 0z" />
        <path d="M4870 1379 l-45 -40 42 28 c23 15 44 34 47 41 7 17 6 16 -44 -29z" />
        <path d="M5004 1405 c-18 -13 -18 -14 4 -8 12 3 25 9 28 14 8 14 -10 11 -32
-6z" />
        <path d="M5117 1413 c-4 -3 -7 -13 -7 -22 1 -13 3 -13 11 2 11 19 8 33 -4 20z" />
        <path
            d="M5382 1408 c-15 -15 -16 -52 -1 -43 6 4 8 13 5 20 -2 7 1 18 7 24 6
6 9 11 6 11 -3 0 -10 -5 -17 -12z" />
        <path
            d="M1762 1398 c-11 -14 10 -43 22 -31 11 11 6 24 -6 18 -7 -4 -4 1 6 9
16 13 17 16 4 16 -8 0 -20 -6 -26 -12z" />
        <path
            d="M4681 1396 c-9 -11 -9 -16 0 -22 7 -4 9 -3 5 4 -3 5 0 12 6 15 7 2
10 7 7 11 -3 4 -12 0 -18 -8z" />
        <path d="M5170 1399 c0 -5 5 -7 10 -4 6 3 10 8 10 11 0 2 -4 4 -10 4 -5 0 -10
-5 -10 -11z" />
        <path
            d="M1595 1380 c-3 -11 -11 -20 -16 -20 -5 0 -9 -7 -9 -15 0 -9 -7 -18
-15 -21 -8 -4 -15 -11 -15 -18 1 -16 70 63 70 80 0 20 -8 17 -15 -6z" />
        <path d="M4760 1390 c0 -5 4 -10 9 -10 6 0 13 5 16 10 3 6 -1 10 -9 10 -9 0
-16 -4 -16 -10z" />
        <path
            d="M5059 1398 c-1 -2 -2 -14 -4 -28 -2 -14 -6 -36 -10 -50 -5 -23 -5
-23 4 -3 5 12 18 26 28 32 16 9 16 10 1 11 -11 0 -15 6 -11 20 3 11 3 20 -1
20 -3 0 -6 -1 -7 -2z" />
        <path d="M5250 1389 c0 -5 5 -7 10 -4 6 3 10 8 10 11 0 2 -4 4 -10 4 -5 0 -10
-5 -10 -11z" />
        <path
            d="M5690 1390 c-3 -19 -1 -91 4 -198 2 -46 0 -98 -4 -115 -12 -48 -19
-127 -10 -127 18 0 31 198 22 325 -5 72 -10 123 -12 115z" />
        <path d="M2548 1382 c-10 -2 -18 -8 -18 -13 0 -13 27 -11 35 2 9 13 4 16 -17
11z" />
        <path d="M2597 1370 c-3 -11 -1 -20 4 -20 5 0 9 9 9 20 0 11 -2 20 -4 20 -2 0
-6 -9 -9 -20z" />
        <path d="M3388 1355 c-2 -19 0 -35 4 -35 4 0 8 16 8 35 0 19 -2 35 -4 35 -2 0
-6 -16 -8 -35z" />
        <path d="M5184 1368 c-19 -21 -19 -21 6 -8 33 17 33 17 22 24 -5 3 -18 -4 -28
-16z" />
        <path d="M5751 1359 c-1 -29 -6 -38 -23 -44 l-23 -8 24 -4 c34 -7 43 7 32 53
l-9 39 -1 -36z" />
        <path
            d="M5864 1358 c4 -33 2 -38 -17 -40 -42 -2 -46 -3 -54 -12 -4 -5 -3 -6
5 -2 7 4 12 1 12 -8 0 -9 -5 -16 -12 -16 -6 0 -8 -3 -4 -7 4 -5 13 -1 20 9 6
9 23 18 36 20 27 3 35 35 18 73 -6 14 -7 9 -4 -17z" />
        <path
            d="M5972 1353 c2 -32 0 -38 -17 -38 -17 0 -20 -7 -21 -45 -1 -39 -1 -40
3 -7 4 31 8 37 29 37 22 0 24 4 24 45 0 25 -5 45 -11 45 -6 0 -9 -15 -7 -37z" />
        <path d="M4817 1373 c-4 -3 -7 -11 -7 -17 0 -6 5 -5 12 2 6 6 9 14 7 17 -3 3
-9 2 -12 -2z" />
        <path d="M4970 1365 c-7 -8 -9 -15 -6 -15 4 0 14 7 22 15 9 8 11 15 6 15 -5 0
-15 -7 -22 -15z" />
        <path
            d="M5384 1353 c-16 -25 -16 -26 -1 -14 15 12 17 12 12 -2 -4 -8 -1 -18
5 -22 7 -4 10 5 8 29 -1 20 -3 36 -4 36 -1 0 -10 -12 -20 -27z" />
        <path d="M2932 1345 c0 -16 2 -22 5 -12 2 9 2 23 0 30 -3 6 -5 -1 -5 -18z" />
        <path d="M5235 1360 c-3 -6 1 -7 9 -4 18 7 21 14 7 14 -6 0 -13 -4 -16 -10z" />
        <path d="M4880 1350 c0 -5 5 -10 10 -10 6 0 10 5 10 10 0 6 -4 10 -10 10 -5 0
-10 -4 -10 -10z" />
        <path
            d="M1506 1323 c-11 -14 -14 -23 -8 -19 7 4 12 2 12 -4 0 -6 5 -8 11 -5
6 4 8 13 5 20 -2 7 1 18 7 24 6 6 7 11 2 11 -6 0 -19 -12 -29 -27z" />
        <path d="M2536 1341 c-4 -5 3 -7 14 -4 23 6 26 13 6 13 -8 0 -17 -4 -20 -9z" />
        <path d="M2615 1340 c-28 -7 -27 -8 13 -9 27 -1 41 3 37 9 -7 11 -7 11 -50 0z" />
        <path d="M2966 1335 c-25 -19 -9 -19 24 0 14 8 19 14 10 14 -8 0 -24 -6 -34
-14z" />
        <path d="M3120 1340 c-13 -8 -12 -10 3 -10 9 0 17 5 17 10 0 12 -1 12 -20 0z" />
        <path d="M738 1333 c18 -2 45 -2 60 0 15 2 0 4 -33 4 -33 0 -45 -2 -27 -4z" />
        <path
            d="M1640 1315 c-13 -14 -20 -28 -17 -32 4 -3 7 -1 7 6 0 7 6 11 14 8 9
-4 16 3 19 19 5 30 6 30 -23 -1z" />
        <path
            d="M3475 1330 c-8 -13 5 -100 15 -100 4 0 4 19 -2 42 -8 36 -6 44 8 55
16 12 16 13 2 13 -9 0 -20 -5 -23 -10z" />
        <path d="M3713 1333 c15 -2 37 -2 50 0 12 2 0 4 -28 4 -27 0 -38 -2 -22 -4z" />
        <path
            d="M4125 1330 c-3 -5 3 -10 14 -10 12 0 21 5 21 10 0 6 -6 10 -14 10 -8
0 -18 -4 -21 -10z" />
        <path
            d="M4635 1320 c-10 -11 -14 -20 -8 -20 5 0 18 9 28 20 10 11 14 20 8 20
-5 0 -18 -9 -28 -20z" />
        <path d="M4693 1323 c0 -9 4 -10 14 -2 7 6 13 12 13 14 0 1 -6 2 -13 2 -8 0
-14 -6 -14 -14z" />
        <path
            d="M4800 1325 c-7 -8 -19 -15 -26 -15 -8 0 -14 -4 -14 -9 0 -5 10 -7 22
-3 14 3 19 1 14 -6 -4 -6 -22 -14 -41 -18 -20 -3 -38 -10 -41 -16 -10 -15 49
3 81 25 16 11 37 20 47 20 10 -1 20 2 23 6 5 9 -38 6 -54 -4 -15 -9 -14 8 1
23 7 7 9 12 6 12 -3 0 -11 -7 -18 -15z" />
        <path d="M4930 1329 c0 -5 5 -7 10 -4 6 3 10 8 10 11 0 2 -4 4 -10 4 -5 0 -10
-5 -10 -11z" />
        <path d="M5105 1329 c-4 -6 -5 -12 -2 -15 2 -3 7 2 10 11 7 17 1 20 -8 4z" />
        <path d="M5333 1314 c-8 -17 -8 -24 -1 -22 13 5 31 48 20 48 -4 0 -12 -12 -19
-26z" />
        <path
            d="M1889 1323 c-10 -2 -19 -14 -22 -26 -5 -19 -4 -20 6 -6 7 9 24 18 40
21 24 5 27 2 28 -21 2 -23 2 -24 6 -3 2 12 10 22 16 23 23 1 49 8 55 13 6 7
-104 6 -129 -1z" />
        <path
            d="M3418 1313 c-8 -10 -18 -25 -22 -33 -4 -8 1 -5 12 8 11 12 25 22 31
22 5 0 13 5 16 10 11 17 -21 11 -37 -7z" />
        <path d="M4892 1315 c-11 -12 -10 -15 3 -15 8 0 15 7 15 15 0 18 -2 18 -18 0z" />
        <path d="M4985 1319 c-3 -4 2 -6 10 -5 21 3 28 13 10 13 -9 0 -18 -4 -20 -8z" />
        <path d="M5137 1311 c-4 -17 -3 -21 5 -13 5 5 8 16 6 23 -3 8 -7 3 -11 -10z" />
        <path
            d="M760 1310 c0 -5 13 -10 29 -10 17 0 33 5 36 10 4 6 -8 10 -29 10 -20
0 -36 -4 -36 -10z" />
        <path d="M1140 1310 c-13 -8 -12 -10 3 -10 9 0 17 5 17 10 0 12 -1 12 -20 0z" />
        <path d="M1590 1309 c0 -5 5 -7 10 -4 6 3 10 8 10 11 0 2 -4 4 -10 4 -5 0 -10
-5 -10 -11z" />
        <path d="M5250 1309 c0 -5 5 -7 10 -4 6 3 10 8 10 11 0 2 -4 4 -10 4 -5 0 -10
-5 -10 -11z" />
        <path
            d="M5366 1301 c-24 -27 -17 -47 9 -26 20 17 20 17 0 11 -20 -6 -20 -6
-1 9 11 8 17 17 14 20 -2 3 -13 -4 -22 -14z" />
        <path d="M1190 1302 c0 -5 14 -7 30 -4 17 2 30 6 30 8 0 2 -13 4 -30 4 -16 0
-30 -4 -30 -8z" />
        <path d="M1840 1299 c0 -5 5 -7 10 -4 6 3 10 8 10 11 0 2 -4 4 -10 4 -5 0 -10
-5 -10 -11z" />
        <path
            d="M2377 1303 c-3 -5 -36 -10 -73 -11 -37 -1 -69 -4 -72 -7 -3 -3 97 -5
221 -5 125 0 227 3 227 8 0 4 -64 7 -143 7 -78 0 -145 4 -148 9 -4 4 -9 4 -12
-1z" />
        <path
            d="M2730 1302 c0 -7 -7 -12 -15 -12 -8 0 -15 -8 -15 -18 0 -10 -7 -28
-16 -40 -17 -25 -10 -30 12 -8 8 8 14 22 14 32 0 9 8 23 17 30 10 7 15 16 10
20 -4 4 -7 2 -7 -4z" />
        <path d="M5280 1300 c-9 -6 -10 -10 -3 -10 6 0 15 5 18 10 8 12 4 12 -15 0z" />
        <path
            d="M1547 1282 c-10 -10 -14 -22 -10 -25 3 -4 1 -7 -5 -7 -6 0 -16 -10
-22 -22 -9 -18 -5 -16 18 8 15 16 33 29 39 27 6 -2 13 4 17 13 6 15 4 15 -11
3 -15 -12 -16 -12 -10 4 8 22 4 22 -16 -1z" />
        <path d="M2176 1292 c-3 -5 1 -9 9 -9 8 0 12 4 9 9 -3 4 -7 8 -9 8 -2 0 -6 -4
-9 -8z" />
        <path
            d="M2825 1289 c-36 -4 -41 -6 -17 -7 17 -1 32 -5 32 -9 -1 -15 -37 -51
-55 -54 -19 -4 -42 -49 -24 -49 6 0 13 9 16 20 3 11 11 20 18 20 7 0 25 16 40
34 19 24 38 36 59 38 29 3 29 3 6 8 -14 3 -47 2 -75 -1z" />
        <path d="M2964 1288 c-3 -4 32 -8 77 -8 45 0 80 2 78 5 -9 8 -150 11 -155 3z" />
        <path d="M5090 1289 c0 -5 5 -7 10 -4 6 3 10 8 10 11 0 2 -4 4 -10 4 -5 0 -10
-5 -10 -11z" />
        <path d="M2121 1274 c0 -11 3 -14 6 -6 3 7 2 16 -1 19 -3 4 -6 -2 -5 -13z" />
        <path d="M2141 1274 c0 -11 3 -14 6 -6 3 7 2 16 -1 19 -3 4 -6 -2 -5 -13z" />
        <path d="M4691 1281 c-8 -6 -9 -11 -3 -15 6 -3 14 -1 17 5 9 14 2 20 -14 10z" />
        <path
            d="M5208 1249 c-27 -22 -48 -46 -48 -52 0 -8 3 -7 9 2 5 7 14 10 20 7 6
-4 11 -4 10 1 -4 26 16 45 53 48 3 0 10 4 15 9 5 6 2 6 -6 1 -11 -6 -13 -4 -8
8 3 10 5 17 4 17 -1 0 -23 -18 -49 -41z" />
        <path d="M5394 1267 c-8 -18 -8 -24 3 -24 7 0 13 4 13 8 0 4 3 14 6 23 10 25
-10 18 -22 -7z" />
        <path d="M4838 1258 c2 -10 6 -18 7 -18 1 0 5 8 7 18 3 11 0 19 -7 19 -7 0
-10 -8 -7 -19z" />
        <path
            d="M5023 1268 c9 -26 -17 -51 -53 -52 -19 -1 -35 -7 -38 -15 -3 -8 0
-11 7 -7 6 4 11 3 11 -3 0 -5 -5 -12 -10 -14 -6 -3 -5 -4 2 -3 7 2 12 11 11
20 -1 14 4 16 23 12 18 -5 31 0 48 19 17 18 26 22 29 13 3 -7 4 -3 4 9 -1 12
-5 19 -10 16 -5 -3 -14 1 -19 8 -8 11 -9 11 -5 -3z" />
        <path d="M5830 1261 c0 -11 4 -22 9 -25 4 -3 6 6 3 19 -5 30 -12 33 -12 6z" />
        <path d="M1693 1255 c0 -8 4 -12 9 -9 5 3 6 10 3 15 -9 13 -12 11 -12 -6z" />
        <path
            d="M1881 1260 c-19 -5 -40 -6 -46 -3 -7 2 -15 -3 -19 -13 -5 -13 -4 -14
7 -6 8 7 18 7 27 2 8 -5 19 -6 25 -2 5 4 15 7 20 8 6 0 16 2 23 2 6 1 12 7 12
12 0 11 -1 11 -49 0z" />
        <path
            d="M2774 1263 c-12 -2 -26 -16 -33 -31 -11 -27 -11 -27 5 -4 9 12 22 22
30 22 7 0 16 5 19 10 3 6 5 9 3 9 -2 -1 -13 -4 -24 -6z" />
        <path d="M4338 1263 c6 -2 18 -2 25 0 6 3 1 5 -13 5 -14 0 -19 -2 -12 -5z" />
        <path d="M5139 1253 c-13 -15 -12 -15 9 -4 23 12 28 21 13 21 -5 0 -15 -7 -22
-17z" />
        <path
            d="M167 1238 c-5 -21 -5 -21 7 -6 7 10 17 14 21 10 5 -4 5 -1 1 6 -11
19 -23 14 -29 -10z" />
        <path d="M3018 1253 c6 -2 18 -2 25 0 6 3 1 5 -13 5 -14 0 -19 -2 -12 -5z" />
        <path d="M3401 1200 c-1 -33 3 -60 8 -60 10 0 9 105 -1 115 -3 3 -6 -22 -7
-55z" />
        <path d="M4964 1244 c-18 -14 -18 -14 6 -3 31 14 36 19 24 19 -6 0 -19 -7 -30
-16z" />
        <path d="M207 1234 c-16 -9 -27 -18 -24 -20 7 -7 57 18 57 28 0 10 1 10 -33
-8z" />
        <path d="M1627 1225 c-11 -16 -13 -23 -5 -20 15 6 42 45 31 45 -5 0 -16 -12
-26 -25z" />
        <path d="M2122 1225 c0 -16 2 -22 5 -12 2 9 2 23 0 30 -3 6 -5 -1 -5 -18z" />
        <path d="M3660 1240 c-9 -6 -10 -10 -3 -10 6 0 15 5 18 10 8 12 4 12 -15 0z" />
        <path d="M4271 1246 c2 -2 20 -6 39 -10 25 -4 31 -3 20 4 -14 9 -69 15 -59 6z" />
        <path
            d="M5270 1240 c0 -5 -7 -10 -15 -10 -8 0 -15 -4 -15 -9 0 -5 9 -7 20 -4
17 5 30 33 15 33 -3 0 -5 -4 -5 -10z" />
        <path d="M2975 1230 c-3 -5 -1 -10 4 -10 6 0 11 5 11 10 0 6 -2 10 -4 10 -3 0
-8 -4 -11 -10z" />
        <path d="M4798 1233 c7 -3 16 -2 19 1 4 3 -2 6 -13 5 -11 0 -14 -3 -6 -6z" />
        <path
            d="M5085 1220 c-10 -11 -16 -22 -14 -24 2 -3 14 6 26 20 12 13 18 24 14
24 -4 0 -16 -9 -26 -20z" />
        <path
            d="M1557 1216 c-4 -10 -3 -15 3 -11 15 9 12 -8 -5 -31 -18 -24 -19 -40
-2 -26 10 9 13 6 13 -13 0 -15 -7 -27 -18 -31 -10 -3 -18 -10 -18 -15 0 -13
47 19 54 37 3 8 1 14 -5 14 -6 0 -5 8 2 21 8 15 8 19 0 15 -6 -4 -11 -2 -11 3
0 6 4 11 9 11 5 0 11 9 14 21 4 16 3 18 -8 9 -10 -8 -14 -8 -17 2 -3 8 -7 6
-11 -6z" />
        <path
            d="M2625 1220 c-3 -5 3 -10 15 -10 12 0 18 5 15 10 -3 6 -10 10 -15 10
-5 0 -12 -4 -15 -10z" />
        <path d="M3527 1223 c-4 -3 -7 -11 -7 -17 0 -6 5 -5 12 2 6 6 9 14 7 17 -3 3
-9 2 -12 -2z" />
        <path
            d="M4472 1218 c-7 -7 -12 -19 -12 -27 1 -14 3 -13 14 1 7 10 15 16 18
13 2 -3 5 2 5 10 0 18 -9 19 -25 3z" />
        <path
            d="M4637 1210 c-28 -22 -42 -26 -32 -9 5 6 0 6 -12 -1 -10 -7 -20 -22
-20 -34 -2 -21 -2 -20 11 2 6 12 15 20 18 16 4 -3 20 3 36 15 16 11 33 17 37
13 5 -4 5 -1 1 6 -9 16 -9 16 -39 -8z" />
        <path d="M5438 1223 c7 -3 16 -2 19 1 4 3 -2 6 -13 5 -11 0 -14 -3 -6 -6z" />
        <path d="M5483 1223 c9 -2 23 -2 30 0 6 3 -1 5 -18 5 -16 0 -22 -2 -12 -5z" />
        <path d="M1319 1218 c-5 -16 -4 -46 2 -42 4 2 7 13 6 24 -1 17 -5 26 -8 18z" />
        <path d="M1809 1203 c-13 -16 -12 -17 4 -4 16 13 21 21 13 21 -2 0 -10 -8 -17
-17z" />
        <path d="M1845 1210 c-3 -5 -1 -10 4 -10 6 0 11 5 11 10 0 6 -2 10 -4 10 -3 0
-8 -4 -11 -10z" />
        <path d="M2282 1195 c-17 -37 -14 -45 4 -12 9 16 14 31 11 33 -2 2 -9 -7 -15
-21z" />
        <path d="M2588 1213 c7 -3 16 -2 19 1 4 3 -2 6 -13 5 -11 0 -14 -3 -6 -6z" />
        <path d="M3955 1210 c-3 -5 -2 -10 4 -10 5 0 13 5 16 10 3 6 2 10 -4 10 -5 0
-13 -4 -16 -10z" />
        <path d="M4797 1213 c-4 -3 -7 -11 -7 -17 0 -6 5 -5 12 2 6 6 9 14 7 17 -3 3
-9 2 -12 -2z" />
        <path d="M5105 1210 c-3 -5 -1 -10 4 -10 6 0 11 5 11 10 0 6 -2 10 -4 10 -3 0
-8 -4 -11 -10z" />
        <path
            d="M696 1195 c-20 -15 -33 -50 -15 -39 5 3 7 10 4 15 -4 5 3 9 14 9 12
0 21 7 21 15 0 18 0 18 -24 0z" />
        <path d="M1375 1200 c-3 -5 -1 -10 4 -10 6 0 11 5 11 10 0 6 -2 10 -4 10 -3 0
-8 -4 -11 -10z" />
        <path d="M2246 1170 c-10 -23 -16 -44 -13 -47 7 -6 39 67 34 80 -1 4 -11 -10
-21 -33z" />
        <path d="M3482 1185 c0 -16 2 -22 5 -12 2 9 2 23 0 30 -3 6 -5 -1 -5 -18z" />
        <path d="M3730 1200 c-9 -6 -10 -10 -3 -10 6 0 15 5 18 10 8 12 4 12 -15 0z" />
        <path d="M4855 1200 c-3 -5 -1 -10 4 -10 6 0 11 5 11 10 0 6 -2 10 -4 10 -3 0
-8 -4 -11 -10z" />
        <path d="M5046 1193 c-6 -14 -5 -15 5 -6 7 7 10 15 7 18 -3 3 -9 -2 -12 -12z" />
        <path d="M185 1190 c-3 -5 1 -10 9 -10 8 0 18 5 21 10 3 6 -1 10 -9 10 -8 0
-18 -4 -21 -10z" />
        <path
            d="M737 1180 c-14 -11 -28 -34 -32 -50 -4 -16 -14 -35 -23 -40 -15 -10
-15 -10 3 -8 12 2 24 15 30 34 13 42 33 64 57 64 10 0 16 5 13 10 -9 15 -19
12 -48 -10z" />
        <path d="M3915 1189 c-11 -17 1 -21 15 -4 8 9 8 15 2 15 -6 0 -14 -5 -17 -11z" />
        <path d="M4895 1191 c-3 -5 -2 -12 3 -15 5 -3 9 1 9 9 0 17 -3 19 -12 6z" />
        <path d="M130 1180 c-8 -5 -12 -12 -9 -15 4 -3 12 1 19 10 14 17 11 19 -10 5z" />
        <path
            d="M1096 1182 c-4 -7 -2 -12 4 -12 6 0 8 -5 4 -12 -5 -9 -2 -9 9 1 18
14 23 26 8 17 -5 -4 -11 -1 -13 6 -3 9 -6 9 -12 0z" />
        <path d="M1145 1180 c-3 -5 -1 -10 4 -10 6 0 11 5 11 10 0 6 -2 10 -4 10 -3 0
-8 -4 -11 -10z" />
        <path d="M2216 1173 c-6 -14 -5 -15 5 -6 7 7 10 15 7 18 -3 3 -9 -2 -12 -12z" />
        <path d="M3510 1168 c0 -19 2 -20 10 -8 13 19 13 30 0 30 -5 0 -10 -10 -10
-22z" />
        <path
            d="M3978 1173 c-27 -32 -39 -61 -27 -68 6 -4 13 -4 16 -1 4 3 1 6 -7 6
-7 0 -2 14 15 36 28 36 30 58 3 27z" />
        <path d="M5110 1174 c0 -8 5 -12 10 -9 6 4 8 11 5 16 -9 14 -15 11 -15 -7z" />
        <path d="M1054 1164 c-18 -14 -18 -15 4 -4 12 6 22 13 22 15 0 8 -5 6 -26 -11z" />
        <path d="M1421 1173 c-1 -17 16 -25 25 -12 4 7 3 9 -4 5 -5 -3 -13 0 -15 6 -4
9 -6 10 -6 1z" />
        <path
            d="M3687 1173 c-4 -3 -6 -22 -6 -42 2 -34 2 -34 6 -6 3 17 9 36 15 43
11 12 -3 18 -15 5z" />
        <path d="M5385 1170 c3 -5 8 -10 11 -10 2 0 4 5 4 10 0 6 -5 10 -11 10 -5 0
-7 -4 -4 -10z" />
        <path d="M1766 1158 c3 -5 10 -6 15 -3 13 9 11 12 -6 12 -8 0 -12 -4 -9 -9z" />
        <path d="M3720 1159 c0 -5 5 -7 10 -4 6 3 10 8 10 11 0 2 -4 4 -10 4 -5 0 -10
-5 -10 -11z" />
        <path d="M4209 1153 c-13 -16 -12 -17 4 -4 9 7 17 15 17 17 0 8 -8 3 -21 -13z" />
        <path
            d="M5031 1139 c-15 -24 -19 -43 -15 -65 4 -25 2 -34 -13 -43 -17 -10
-17 -10 0 -11 11 0 18 -9 19 -27 3 -53 -4 -118 -14 -130 -7 -9 -7 -13 2 -13 8
0 10 -12 5 -41 -5 -30 -4 -40 4 -34 7 3 12 25 11 48 0 23 2 77 4 120 3 42 2
77 -3 77 -5 0 -5 16 -1 35 5 22 4 35 -2 35 -5 0 -8 6 -5 13 2 6 9 12 15 12 5
0 14 4 19 9 5 5 3 6 -4 2 -16 -9 -17 6 -1 22 6 6 9 14 5 18 -3 3 -15 -9 -26
-27z" />
        <path d="M5166 1153 c-6 -14 -5 -15 5 -6 7 7 10 15 7 18 -3 3 -9 -2 -12 -12z" />
        <path d="M5451 1154 c0 -11 3 -14 6 -6 3 7 2 16 -1 19 -3 4 -6 -2 -5 -13z" />
        <path d="M220 1149 c0 -5 5 -7 10 -4 6 3 10 8 10 11 0 2 -4 4 -10 4 -5 0 -10
-5 -10 -11z" />
        <path d="M915 1150 c-16 -7 -17 -9 -3 -9 9 -1 20 4 23 9 7 11 7 11 -20 0z" />
        <path d="M2283 1145 c-3 -9 -3 -18 -1 -21 3 -3 8 4 11 16 6 23 -1 27 -10 5z" />
        <path d="M4420 1145 c-7 -8 -8 -15 -2 -15 5 0 15 7 22 15 7 8 8 15 2 15 -5 0
-15 -7 -22 -15z" />
        <path d="M4729 1143 c-13 -15 -12 -15 9 -4 23 12 28 21 13 21 -5 0 -15 -7 -22
-17z" />
        <path
            d="M4830 1139 c0 -11 5 -17 10 -14 6 3 10 13 10 21 0 8 -4 14 -10 14 -5
0 -10 -9 -10 -21z" />
        <path d="M5244 1145 c-10 -8 -14 -15 -8 -15 6 0 17 7 24 15 16 19 9 19 -16 0z" />
        <path d="M111 1107 c1 -28 3 -33 6 -17 3 14 9 30 14 36 6 8 4 14 -6 18 -12 4
-15 -3 -14 -37z" />
        <path d="M846 1135 c-11 -8 -15 -15 -9 -15 6 0 16 7 23 15 16 19 11 19 -14 0z" />
        <path d="M1465 1139 c-4 -6 -5 -12 -2 -15 2 -3 7 2 10 11 7 17 1 20 -8 4z" />
        <path
            d="M2304 1138 c-4 -5 -3 -12 0 -15 3 -4 6 -1 6 6 0 7 4 10 9 6 5 -3 12
-2 15 3 3 5 -2 9 -10 9 -8 0 -17 -4 -20 -9z" />
        <path d="M2503 1143 c26 -2 68 -2 95 0 26 2 4 3 -48 3 -52 0 -74 -1 -47 -3z" />
        <path d="M3905 1140 c-3 -5 -1 -10 4 -10 6 0 11 5 11 10 0 6 -2 10 -4 10 -3 0
-8 -4 -11 -10z" />
        <path d="M4647 1144 c-4 -4 -7 -14 -7 -23 0 -11 3 -12 11 -4 6 6 10 16 7 23
-2 6 -7 8 -11 4z" />
        <path d="M4675 1140 c-3 -6 1 -7 9 -4 18 7 21 14 7 14 -6 0 -13 -4 -16 -10z" />
        <path
            d="M4875 1116 c-9 -21 -14 -41 -11 -44 3 -3 11 9 17 26 6 18 14 30 19
27 4 -2 16 2 26 10 17 13 18 14 2 15 -10 0 -18 -6 -18 -12 0 -9 -3 -8 -10 2
-7 12 -12 7 -25 -24z" />
        <path
            d="M4973 1136 c-13 -6 -23 -14 -23 -19 0 -9 36 9 45 23 3 6 5 9 3 9 -2
-1 -13 -6 -25 -13z" />
        <path
            d="M5561 1129 c-14 -15 -21 -18 -21 -9 0 19 -29 -20 -30 -39 0 -11 6 -9
20 6 10 12 29 28 41 37 13 9 20 18 17 21 -3 4 -15 -4 -27 -16z" />
        <path
            d="M254 1116 c-5 -19 -12 -24 -39 -24 -50 0 -75 -22 -40 -36 8 -3 14 0
12 7 -1 7 10 12 29 13 39 1 54 10 54 34 0 10 6 21 13 23 7 3 5 6 -5 6 -11 1
-20 -9 -24 -23z" />
        <path d="M448 1124 c-16 -8 -28 -17 -28 -19 0 -11 19 -4 41 15 29 23 24 25
-13 4z" />
        <path d="M1050 1125 c0 -8 2 -15 4 -15 2 0 6 7 10 15 3 8 1 15 -4 15 -6 0 -10
-7 -10 -15z" />
        <path d="M2346 1123 c-6 -14 -5 -15 5 -6 7 7 10 15 7 18 -3 3 -9 -2 -12 -12z" />
        <path d="M4496 1124 c-5 -14 -4 -15 9 -4 17 14 19 20 6 20 -5 0 -12 -7 -15
-16z" />
        <path d="M5305 1130 c-3 -5 -1 -10 4 -10 6 0 11 5 11 10 0 6 -2 10 -4 10 -3 0
-8 -4 -11 -10z" />
        <path
            d="M5731 1133 c1 -17 18 -47 18 -34 1 8 9 20 19 27 15 12 14 13 -10 14
-16 0 -28 -3 -27 -7z" />
        <path
            d="M5786 1125 c-5 -11 -8 -24 -7 -29 1 -4 -6 -14 -16 -22 -10 -7 -13
-14 -7 -14 6 0 19 9 30 21 10 11 26 18 36 16 10 -3 16 -1 12 4 -3 5 -11 9 -19
9 -7 0 -15 8 -17 18 -3 15 -5 15 -12 -3z" />
        <path d="M1476 1115 c-11 -8 -17 -17 -14 -20 2 -3 13 4 23 15 21 23 18 25 -9
5z" />
        <path
            d="M5090 1105 c-7 -14 -11 -28 -7 -31 3 -4 0 -13 -8 -21 -12 -11 -12
-19 -4 -35 8 -15 8 -27 0 -45 -6 -13 -11 -47 -10 -76 1 -46 3 -39 19 53 10 58
23 122 28 143 11 42 2 49 -18 12z" />
        <path
            d="M5955 1121 c-6 -5 -19 -11 -30 -13 l-20 -4 20 -5 c12 -4 28 2 39 13
11 10 15 18 10 18 -6 0 -14 -4 -19 -9z" />
        <path d="M2307 1091 c-9 -17 -12 -31 -8 -31 9 0 34 51 27 57 -2 2 -11 -10 -19
-26z" />
        <path
            d="M2364 1096 c-11 -23 -10 -23 45 -23 48 0 50 1 12 4 -37 4 -42 7 -38
24 7 27 -6 24 -19 -5z" />
        <path d="M2553 1113 c9 -2 23 -2 30 0 6 3 -1 5 -18 5 -16 0 -22 -2 -12 -5z" />
        <path
            d="M4766 1111 c-4 -6 -2 -19 3 -29 6 -11 7 -22 4 -26 -3 -3 -1 -6 5 -6
8 0 9 11 5 33 -7 38 -9 41 -17 28z" />
        <path d="M5246 1103 c-6 -14 -5 -15 5 -6 7 7 10 15 7 18 -3 3 -9 -2 -12 -12z" />
        <path d="M747 1075 c-28 -35 -32 -45 -19 -45 9 0 56 69 51 75 -3 2 -17 -11
-32 -30z" />
        <path
            d="M1655 1100 c-3 -5 -1 -10 5 -10 6 0 8 -4 5 -10 -3 -5 -2 -10 4 -10 5
0 9 9 8 20 -1 21 -12 26 -22 10z" />
        <path d="M1725 1100 c-3 -5 -1 -10 4 -10 6 0 11 5 11 10 0 6 -2 10 -4 10 -3 0
-8 -4 -11 -10z" />
        <path d="M2230 1095 c0 -8 5 -15 10 -15 6 0 10 7 10 15 0 8 -4 15 -10 15 -5 0
-10 -7 -10 -15z" />
        <path d="M2266 1093 c-6 -14 -5 -15 5 -6 7 7 10 15 7 18 -3 3 -9 -2 -12 -12z" />
        <path d="M3496 1093 c-6 -14 -5 -15 5 -6 7 7 10 15 7 18 -3 3 -9 -2 -12 -12z" />
        <path d="M4234 1095 c-16 -12 -16 -14 -3 -15 9 0 22 7 29 15 16 19 0 19 -26 0z" />
        <path
            d="M5134 1085 c-9 -13 -20 -41 -24 -61 -8 -34 -8 -35 11 -18 10 9 16 20
14 24 -9 14 14 60 29 60 8 0 18 5 21 10 14 23 -36 8 -51 -15z" />
        <path d="M5209 1093 c-13 -16 -12 -17 4 -4 9 7 17 15 17 17 0 8 -8 3 -21 -13z" />
        <path
            d="M5349 1088 c0 -13 -2 -30 -5 -38 -2 -8 -7 -31 -12 -50 -5 -24 -15
-36 -32 -41 l-25 -7 25 -1 c33 -1 48 10 44 33 -1 11 2 29 8 40 14 26 19 86 7
86 -5 0 -9 -10 -10 -22z" />
        <path d="M5380 1099 c0 -5 5 -7 10 -4 6 3 10 8 10 11 0 2 -4 4 -10 4 -5 0 -10
-5 -10 -11z" />
        <path d="M1578 1075 c-3 -14 -1 -25 3 -25 5 0 9 11 9 25 0 14 -2 25 -4 25 -2
0 -6 -11 -8 -25z" />
        <path d="M1615 1090 c-3 -5 -2 -10 4 -10 5 0 13 5 16 10 3 6 2 10 -4 10 -5 0
-13 -4 -16 -10z" />
        <path d="M2050 1089 c0 -5 5 -7 10 -4 6 3 10 8 10 11 0 2 -4 4 -10 4 -5 0 -10
-5 -10 -11z" />
        <path
            d="M4173 1093 c-7 -2 -13 -14 -12 -26 0 -21 1 -21 8 -3 4 11 16 23 27
27 12 5 13 8 4 8 -8 -1 -21 -3 -27 -6z" />
        <path d="M4573 1093 c9 -2 23 -2 30 0 6 3 -1 5 -18 5 -16 0 -22 -2 -12 -5z" />
        <path d="M4727 1086 c-4 -10 -5 -21 -2 -24 9 -9 17 6 13 25 -3 17 -4 17 -11
-1z" />
        <path d="M4945 1090 c-3 -5 -1 -10 4 -10 6 0 11 5 11 10 0 6 -2 10 -4 10 -3 0
-8 -4 -11 -10z" />
        <path d="M5960 1089 c0 -5 5 -7 10 -4 6 3 10 8 10 11 0 2 -4 4 -10 4 -5 0 -10
-5 -10 -11z" />
        <path d="M420 1079 c0 -5 5 -7 10 -4 6 3 10 8 10 11 0 2 -4 4 -10 4 -5 0 -10
-5 -10 -11z" />
        <path d="M876 1073 c-6 -14 -5 -15 5 -6 7 7 10 15 7 18 -3 3 -9 -2 -12 -12z" />
        <path d="M1355 1080 c-3 -5 -1 -10 4 -10 6 0 11 5 11 10 0 6 -2 10 -4 10 -3 0
-8 -4 -11 -10z" />
        <path d="M3675 1080 c-3 -5 -1 -10 4 -10 6 0 11 5 11 10 0 6 -2 10 -4 10 -3 0
-8 -4 -11 -10z" />
        <path
            d="M3787 1079 c-9 -6 -17 -20 -16 -32 l0 -22 9 23 c7 17 17 22 45 22 19
0 35 4 35 8 0 12 -52 13 -73 1z" />
        <path
            d="M4029 1083 c-10 -2 -19 -14 -23 -26 -7 -27 0 -35 9 -8 3 12 16 21 33
23 17 2 22 5 12 9 -8 3 -22 4 -31 2z" />
        <path d="M4372 1085 c10 -10 68 -13 73 -4 4 5 -13 9 -36 9 -23 0 -40 -2 -37
-5z" />
        <path d="M4465 1079 c-11 -17 1 -21 15 -4 8 9 8 15 2 15 -6 0 -14 -5 -17 -11z" />
        <path d="M4837 1071 c-4 -17 -3 -21 5 -13 5 5 8 16 6 23 -3 8 -7 3 -11 -10z" />
        <path d="M5246 1068 c-16 -22 -15 -35 2 -24 9 5 24 46 17 46 -2 0 -11 -10 -19
-22z" />
        <path
            d="M5573 1082 c-14 -9 -33 -56 -33 -80 0 -15 2 -15 10 -2 5 8 10 24 10
34 0 11 7 28 17 38 17 19 16 23 -4 10z" />
        <path
            d="M1603 1045 c-20 -20 -32 -39 -28 -43 4 -4 10 0 13 8 3 8 19 27 35 43
16 15 26 27 22 27 -4 0 -23 -16 -42 -35z" />
        <path
            d="M1685 1060 c-14 -15 -20 -17 -26 -8 -5 8 -8 5 -6 -9 1 -15 5 -19 13
-13 6 6 15 6 19 2 5 -4 5 -2 1 5 -3 6 2 16 11 22 10 5 15 12 12 15 -3 4 -14
-3 -24 -14z" />
        <path d="M2488 1073 c12 -2 32 -2 45 0 12 2 2 4 -23 4 -25 0 -35 -2 -22 -4z" />
        <path d="M4137 1073 c-4 -3 -7 -11 -7 -17 0 -6 5 -5 12 2 6 6 9 14 7 17 -3 3
-9 2 -12 -2z" />
        <path d="M5155 1070 c-3 -6 1 -7 9 -4 18 7 21 14 7 14 -6 0 -13 -4 -16 -10z" />
        <path d="M1095 1060 c-3 -5 -2 -10 4 -10 5 0 13 5 16 10 3 6 2 10 -4 10 -5 0
-13 -4 -16 -10z" />
        <path d="M1725 1060 c-3 -5 -1 -10 4 -10 6 0 11 5 11 10 0 6 -2 10 -4 10 -3 0
-8 -4 -11 -10z" />
        <path d="M2325 1060 c-3 -5 -1 -10 4 -10 6 0 11 5 11 10 0 6 -2 10 -4 10 -3 0
-8 -4 -11 -10z" />
        <path
            d="M4614 1031 c-6 -39 -7 -40 -56 -46 -31 -4 -46 -10 -38 -15 19 -12 2
-30 -27 -30 -18 0 -24 4 -19 15 6 17 -9 21 -19 5 -3 -5 -18 -10 -33 -11 -48
-1 7 -16 66 -18 45 -1 52 1 52 18 0 21 18 31 56 31 14 0 26 6 28 13 11 36 14
77 6 77 -5 0 -13 -18 -16 -39z" />
        <path
            d="M4947 1049 c-5 -14 -7 -31 -5 -39 2 -9 -8 -16 -26 -19 -27 -6 -48
-41 -24 -41 6 0 8 7 4 15 -6 17 5 20 20 6 5 -6 16 -5 27 4 14 10 17 23 15 57
-3 38 -5 40 -11 17z" />
        <path d="M100 1045 c-8 -9 -8 -15 -2 -15 12 0 26 19 19 26 -2 2 -10 -2 -17
-11z" />
        <path d="M3797 1053 c-10 -19 -17 -64 -9 -59 6 3 12 19 14 36 5 30 3 37 -5 23z" />
        <path d="M5205 1050 c-3 -5 -1 -10 4 -10 6 0 11 5 11 10 0 6 -2 10 -4 10 -3 0
-8 -4 -11 -10z" />
        <path d="M945 1040 c-3 -5 -1 -10 4 -10 6 0 11 5 11 10 0 6 -2 10 -4 10 -3 0
-8 -4 -11 -10z" />
        <path d="M4395 1040 c-3 -5 -2 -10 4 -10 5 0 13 5 16 10 3 6 2 10 -4 10 -5 0
-13 -4 -16 -10z" />
        <path d="M4542 1038 c-7 -7 -12 -19 -12 -27 0 -11 5 -8 16 7 18 25 15 39 -4
20z" />
        <path d="M5610 1026 c0 -31 6 -34 13 -6 3 11 1 23 -4 26 -5 3 -9 -6 -9 -20z" />
        <path d="M5797 1031 c-4 -17 -3 -21 5 -13 5 5 8 16 6 23 -3 8 -7 3 -11 -10z" />
        <path d="M820 1025 c-11 -13 -10 -14 4 -9 9 3 16 10 16 15 0 13 -6 11 -20 -6z" />
        <path d="M2250 1025 c-7 -8 -8 -15 -2 -15 5 0 15 7 22 15 7 8 8 15 2 15 -5 0
-15 -7 -22 -15z" />
        <path d="M2647 1025 c3 -8 9 -12 14 -9 12 7 11 11 -5 17 -10 4 -13 1 -9 -8z" />
        <path d="M4430 1032 c0 -4 9 -8 20 -9 11 -1 20 2 20 5 0 4 -9 8 -20 9 -11 1
-20 -2 -20 -5z" />
        <path d="M4890 1029 c0 -5 5 -7 10 -4 6 3 10 8 10 11 0 2 -4 4 -10 4 -5 0 -10
-5 -10 -11z" />
        <path d="M886 1021 c-3 -4 4 -7 14 -6 27 2 33 10 10 12 -11 1 -22 -2 -24 -6z" />
        <path d="M4652 1010 c-6 -10 -8 -21 -3 -24 5 -3 11 4 14 16 8 29 4 32 -11 8z" />
        <path d="M4132 1003 c-11 -10 -28 -31 -38 -48 -14 -24 -9 -21 24 14 43 45 52
66 14 34z" />
        <path d="M4187 1000 c-9 -11 -13 -20 -8 -20 11 0 35 29 29 35 -2 2 -12 -4 -21
-15z" />
        <path d="M4368 1013 c6 -2 18 -2 25 0 6 3 1 5 -13 5 -14 0 -19 -2 -12 -5z" />
        <path
            d="M4486 1005 c-3 -8 -3 -15 0 -15 3 0 12 7 20 15 13 13 13 15 1 15 -8
0 -17 -7 -21 -15z" />
        <path d="M5153 998 c-2 -16 1 -18 10 -9 7 7 8 14 1 21 -6 6 -10 2 -11 -12z" />
        <path d="M5189 1003 c-13 -16 -12 -17 4 -4 9 7 17 15 17 17 0 8 -8 3 -21 -13z" />
        <path
            d="M5829 1015 c-3 -6 -3 -21 1 -35 3 -14 8 -20 11 -15 3 6 3 21 -1 35
-3 14 -8 20 -11 15z" />
        <path d="M1649 993 c-12 -16 -12 -17 1 -6 8 6 26 13 40 16 l25 4 -26 2 c-15 0
-33 -7 -40 -16z" />
        <path
            d="M3249 1006 c-2 -2 -123 -7 -269 -11 -146 -4 -267 -9 -270 -12 -6 -7
491 7 595 17 l80 7 -66 1 c-36 1 -68 0 -70 -2z" />
        <path d="M3979 991 c-13 -11 -19 -20 -14 -20 14 0 50 28 43 34 -3 3 -16 -3
-29 -14z" />
        <path d="M3501 978 c-1 -21 3 -26 15 -21 9 3 11 9 6 12 -5 3 -12 13 -15 21 -3
9 -6 4 -6 -12z" />
        <path d="M4287 988 c6 -12 61 -10 68 2 4 7 -8 10 -33 8 -22 -2 -38 -6 -35 -10z" />
        <path d="M4669 968 c-3 -22 -1 -34 4 -29 5 5 7 21 5 37 -3 27 -4 26 -9 -8z" />
        <path d="M5114 978 l-19 -23 23 19 c12 11 22 21 22 23 0 8 -8 2 -26 -19z" />
        <path d="M5285 990 c-3 -5 -1 -10 4 -10 6 0 11 5 11 10 0 6 -2 10 -4 10 -3 0
-8 -4 -11 -10z" />
        <path d="M5940 984 c0 -8 5 -12 10 -9 6 4 8 11 5 16 -9 14 -15 11 -15 -7z" />
        <path d="M2628 979 c-8 -6 0 -9 24 -9 20 0 39 4 43 9 7 12 -49 11 -67 0z" />
        <path d="M3736 981 c-4 -5 3 -7 14 -4 23 6 26 13 6 13 -8 0 -17 -4 -20 -9z" />
        <path d="M4740 980 c-30 -5 -37 -8 -20 -10 34 -3 53 0 65 11 5 5 7 8 5 7 -3 0
-25 -4 -50 -8z" />
        <path d="M4986 981 c-3 -5 1 -11 9 -14 9 -4 12 -1 8 9 -6 16 -10 17 -17 5z" />
        <path d="M3175 970 l-70 -6 70 -2 c39 -1 77 3 85 8 13 9 13 10 0 8 -8 -1 -46
-4 -85 -8z" />
        <path d="M3286 972 c-3 -5 22 -9 55 -9 78 0 87 14 9 16 -32 0 -61 -3 -64 -7z" />
        <path d="M3700 970 c0 -5 5 -10 10 -10 6 0 10 5 10 10 0 6 -4 10 -10 10 -5 0
-10 -4 -10 -10z" />
        <path d="M3792 975 c7 -7 97 -9 105 -2 3 4 -20 7 -52 7 -32 0 -56 -2 -53 -5z" />
        <path
            d="M5754 972 c3 -6 -2 -13 -11 -15 -16 -4 -16 -5 -1 -6 21 -1 32 15 17
25 -7 4 -9 3 -5 -4z" />
        <path d="M5898 973 c6 -2 18 -2 25 0 6 3 1 5 -13 5 -14 0 -19 -2 -12 -5z" />
        <path d="M3023 963 c15 -2 37 -2 50 0 12 2 0 4 -28 4 -27 0 -38 -2 -22 -4z" />
        <path d="M2203 953 c9 -2 23 -2 30 0 6 3 -1 5 -18 5 -16 0 -22 -2 -12 -5z" />
        <path d="M3446 934 c-4 -14 -5 -29 -2 -31 3 -3 8 7 12 21 3 15 4 29 1 32 -2 3
-8 -7 -11 -22z" />
        <path d="M5905 950 c-3 -6 1 -7 9 -4 18 7 21 14 7 14 -6 0 -13 -4 -16 -10z" />
        <path
            d="M4953 929 c4 -14 2 -19 -8 -15 -7 2 -16 -2 -19 -10 -6 -15 3 -18 28
-8 18 7 22 54 5 54 -7 0 -9 -9 -6 -21z" />
        <path d="M4283 933 c9 -2 25 -2 35 0 9 3 1 5 -18 5 -19 0 -27 -2 -17 -5z" />
        <path d="M4830 930 c8 -5 26 -9 40 -9 l25 1 -25 8 c-14 4 -32 8 -40 9 -13 1
-13 0 0 -9z" />
        <path d="M3500 909 c0 -5 5 -7 10 -4 6 3 10 8 10 11 0 2 -4 4 -10 4 -5 0 -10
-5 -10 -11z" />
        <path d="M4908 863 c6 -2 18 -2 25 0 6 3 1 5 -13 5 -14 0 -19 -2 -12 -5z" />
        <path d="M5051 814 c0 -11 3 -14 6 -6 3 7 2 16 -1 19 -3 4 -6 -2 -5 -13z" />
    </g>
</svg>